<svg width="155" height="50" fill="none" xmlns="http://www.w3.org/2000/svg"><path d="M117.771 42.774V49H43.863V34.74m0-21.087V1h73.908v12.653" stroke="#000" stroke-width="2"/><path d="M4.35 10.841a.282.282 0 0 1-.209-.084.282.282 0 0 1-.084-.208V6.742c0-.087.028-.156.084-.209a.283.283 0 0 1 .208-.084h1.344c.255 0 .478.05.67.152a1.1 1.1 0 0 1 .455.41c.112.177.169.38.169.608a.87.87 0 0 1-.152.5 1.026 1.026 0 0 1-.405.349 1.1 1.1 0 0 1 .596.354c.15.176.225.407.225.692a1.27 1.27 0 0 1-.692 1.158 1.604 1.604 0 0 1-.748.169H4.35zm.292-2.587h1.051a.827.827 0 0 0 .523-.157c.139-.105.208-.265.208-.478 0-.214-.069-.371-.208-.473a.827.827 0 0 0-.523-.157H4.642v1.265zm0 2.047h1.17a.986.986 0 0 0 .63-.197c.164-.135.247-.331.247-.59 0-.24-.083-.42-.248-.54-.165-.12-.375-.18-.63-.18h-1.17v1.507zm4.052.54a.283.283 0 0 1-.208-.084.282.282 0 0 1-.084-.208V6.742c0-.087.028-.156.084-.209a.283.283 0 0 1 .208-.084h2.542c.086 0 .156.026.208.079a.256.256 0 0 1 .079.197.25.25 0 0 1-.079.19.294.294 0 0 1-.208.074h-2.25v1.366h1.615c.086 0 .155.027.208.08a.249.249 0 0 1 .078.19.267.267 0 0 1-.078.197.294.294 0 0 1-.208.073H8.987v1.406h2.25a.29.29 0 0 1 .207.073.249.249 0 0 1 .079.191c0 .083-.026.15-.079.203a.294.294 0 0 1-.208.073H8.694zm3.752 0a.27.27 0 0 1-.242-.135.29.29 0 0 1-.017-.287l1.58-3.773c.057-.131.149-.197.276-.197.135 0 .227.066.276.197l1.586 3.785a.3.3 0 0 1-.023.286c-.052.083-.133.124-.242.124a.324.324 0 0 1-.163-.045.292.292 0 0 1-.107-.135l-.314-.787h-2.02l-.32.787a.28.28 0 0 1-.118.135.286.286 0 0 1-.152.045zm.787-1.45h1.626l-.804-2.003-.822 2.002zm5.291 1.54c-.36 0-.678-.066-.956-.197a1.612 1.612 0 0 1-.652-.557 1.451 1.451 0 0 1-.23-.81V6.743c0-.087.028-.156.084-.209a.283.283 0 0 1 .208-.084c.086 0 .155.028.208.084a.271.271 0 0 1 .084.209v2.626a.95.95 0 0 0 .158.54c.108.153.257.275.444.365.191.086.409.13.652.13.236 0 .445-.044.624-.13a1.05 1.05 0 0 0 .428-.365.95.95 0 0 0 .157-.54V6.742c0-.087.029-.156.085-.209a.283.283 0 0 1 .208-.084c.086 0 .155.028.208.084a.281.281 0 0 1 .079.209v2.626c0 .303-.077.573-.231.81-.15.236-.36.421-.63.556a2.1 2.1 0 0 1-.928.197zm4.492-.09a.283.283 0 0 1-.208-.084.283.283 0 0 1-.084-.208v-3.56h-1.215a.278.278 0 0 1-.197-.073.278.278 0 0 1-.073-.197.259.259 0 0 1 .27-.27h3.008c.08 0 .143.026.192.079a.25.25 0 0 1 .078.191.259.259 0 0 1-.27.27h-1.209v3.56a.283.283 0 0 1-.084.208.283.283 0 0 1-.208.084zm4.016 0a.276.276 0 0 1-.203-.084.283.283 0 0 1-.084-.208v-1.31l-1.502-2.334a.318.318 0 0 1-.056-.22.257.257 0 0 1 .096-.168.298.298 0 0 1 .191-.068c.064 0 .114.015.152.045a.417.417 0 0 1 .107.118l1.316 2.086 1.338-2.108a.29.29 0 0 1 .259-.14.22.22 0 0 1 .168.072.28.28 0 0 1 .08.175.32.32 0 0 1-.057.208l-1.513 2.333v1.31a.282.282 0 0 1-.084.209.282.282 0 0 1-.208.084zm4.953 0a.283.283 0 0 1-.208-.084.283.283 0 0 1-.084-.208V6.742c0-.087.028-.156.084-.209a.283.283 0 0 1 .208-.084h1.344c.255 0 .478.05.67.152a1.1 1.1 0 0 1 .455.41c.113.177.169.38.169.608a.87.87 0 0 1-.152.5 1.026 1.026 0 0 1-.405.349 1.1 1.1 0 0 1 .596.354c.15.176.225.407.225.692a1.27 1.27 0 0 1-.692 1.158 1.604 1.604 0 0 1-.748.169h-1.462zm.293-2.587h1.051a.827.827 0 0 0 .523-.157c.14-.105.209-.265.209-.478 0-.214-.07-.371-.209-.473a.827.827 0 0 0-.523-.157h-1.051v1.265zm0 2.047h1.17a.986.986 0 0 0 .63-.197c.164-.135.247-.331.247-.59 0-.24-.083-.42-.248-.54-.165-.12-.375-.18-.63-.18h-1.17v1.507zm4.796.54a.276.276 0 0 1-.203-.084.283.283 0 0 1-.084-.208v-1.31l-1.502-2.334a.317.317 0 0 1-.056-.22.257.257 0 0 1 .096-.168.298.298 0 0 1 .191-.068c.064 0 .114.015.152.045a.417.417 0 0 1 .107.118l1.316 2.086 1.338-2.108a.29.29 0 0 1 .259-.14.22.22 0 0 1 .168.072.28.28 0 0 1 .08.175.32.32 0 0 1-.057.208l-1.513 2.333v1.31a.282.282 0 0 1-.084.209.282.282 0 0 1-.208.084zm61.468 27.715a.283.283 0 0 1-.208-.084.283.283 0 0 1-.085-.208v-3.807c0-.086.029-.156.085-.208a.283.283 0 0 1 .208-.084h1.124c.282 0 .531.061.748.185.218.124.387.296.507.517.123.218.185.47.185.754 0 .274-.062.517-.185.731a1.27 1.27 0 0 1-.507.5 1.52 1.52 0 0 1-.748.18h-.832v1.232a.283.283 0 0 1-.084.208.271.271 0 0 1-.208.084zm.292-2.063h.832c.255 0 .465-.08.63-.242a.854.854 0 0 0 .248-.63.957.957 0 0 0-.113-.472.837.837 0 0 0-.309-.327.868.868 0 0 0-.456-.118h-.832v1.789zm3.375 2.063a.285.285 0 0 1-.209-.084.295.295 0 0 1-.078-.208v-3.807c0-.083.028-.152.084-.208a.277.277 0 0 1 .203-.084c.082 0 .151.028.208.084a.283.283 0 0 1 .084.208v3.515h2.036c.082 0 .151.028.208.084a.283.283 0 0 1 .084.208.283.283 0 0 1-.084.208.284.284 0 0 1-.208.084h-2.328zm3.315 0a.27.27 0 0 1-.242-.134.29.29 0 0 1-.017-.287l1.581-3.774c.056-.13.148-.196.275-.196.135 0 .227.065.276.196l1.586 3.785a.3.3 0 0 1-.023.287c-.052.082-.133.123-.242.123a.326.326 0 0 1-.163-.044.294.294 0 0 1-.107-.136l-.315-.787h-2.018l-.321.788a.28.28 0 0 1-.118.134.286.286 0 0 1-.152.045zm.787-1.45h1.626l-.805-2.002-.821 2.002zm4.905 1.507c-.24 0-.469-.038-.686-.113a1.767 1.767 0 0 1-.568-.315 1.233 1.233 0 0 1-.355-.466.23.23 0 0 1 0-.22.292.292 0 0 1 .203-.13.265.265 0 0 1 .197.035.33.33 0 0 1 .152.157c.045.094.118.18.219.259a1.449 1.449 0 0 0 .838.264 1.4 1.4 0 0 0 .495-.084.908.908 0 0 0 .371-.242.593.593 0 0 0 .14-.4.735.735 0 0 0-.236-.533c-.154-.158-.408-.256-.765-.293-.465-.045-.83-.182-1.096-.41a1.076 1.076 0 0 1-.399-.85c0-.247.069-.457.208-.63a1.29 1.29 0 0 1 .562-.393c.24-.09.506-.135.798-.135.342 0 .621.07.838.208.218.139.398.322.54.551a.34.34 0 0 1 .062.236.22.22 0 0 1-.107.169.262.262 0 0 1-.23.028.315.315 0 0 1-.186-.146 1.037 1.037 0 0 0-.365-.377 1.108 1.108 0 0 0-.568-.14c-.278-.004-.51.048-.698.157a.524.524 0 0 0-.281.49c0 .112.028.22.084.325.06.102.167.19.321.265.157.075.382.127.675.157.446.045.793.182 1.04.41.251.226.377.524.377.895 0 .214-.045.4-.135.556a1.198 1.198 0 0 1-.354.4 1.582 1.582 0 0 1-.506.236 2.165 2.165 0 0 1-.585.079zm3.719-.057a.283.283 0 0 1-.208-.084.283.283 0 0 1-.084-.208v-3.56h-1.215a.279.279 0 0 1-.197-.073.281.281 0 0 1-.073-.197c0-.078.025-.142.073-.19a.268.268 0 0 1 .197-.08h3.009a.25.25 0 0 1 .191.08.25.25 0 0 1 .079.19.26.26 0 0 1-.27.27h-1.209v3.56a.28.28 0 0 1-.085.208.281.281 0 0 1-.208.084zm2.88 0a.283.283 0 0 1-.208-.084.283.283 0 0 1-.084-.208v-3.807c0-.086.028-.156.084-.208a.283.283 0 0 1 .208-.084.27.27 0 0 1 .208.084.27.27 0 0 1 .085.208v3.807a.28.28 0 0 1-.085.208.27.27 0 0 1-.208.084zm3.553.057c-.304 0-.589-.056-.855-.169a2.216 2.216 0 0 1-.692-.478 2.329 2.329 0 0 1-.461-.72 2.38 2.38 0 0 1-.163-.888c0-.315.054-.608.163-.877a2.26 2.26 0 0 1 .461-.715 2.17 2.17 0 0 1 .692-.483c.262-.117.547-.175.855-.175.288 0 .536.038.742.113.21.075.42.199.63.371a.316.316 0 0 1 .09.107.304.304 0 0 1 .022.123.235.235 0 0 1-.079.18.3.3 0 0 1-.179.08.31.31 0 0 1-.209-.074 1.64 1.64 0 0 0-.433-.276 1.498 1.498 0 0 0-.584-.095c-.222 0-.43.045-.625.135a1.68 1.68 0 0 0-.517.371 1.78 1.78 0 0 0-.467 1.215c0 .24.042.465.124.674.082.207.197.389.343.546a1.526 1.526 0 0 0 1.142.5c.191 0 .371-.031.539-.095.173-.068.338-.16.495-.276a.28.28 0 0 1 .197-.062c.068.004.124.03.169.08.045.044.067.108.067.19 0 .08-.03.148-.09.209a2.137 2.137 0 0 1-1.377.489zm5.782 0a2.09 2.09 0 0 1-.686-.113 1.778 1.778 0 0 1-.568-.315 1.24 1.24 0 0 1-.354-.466.225.225 0 0 1 0-.22.29.29 0 0 1 .202-.13.264.264 0 0 1 .197.035.325.325 0 0 1 .152.157c.045.094.118.18.219.259a1.449 1.449 0 0 0 .838.264 1.4 1.4 0 0 0 .495-.084.895.895 0 0 0 .371-.242.59.59 0 0 0 .141-.4.739.739 0 0 0-.236-.533c-.154-.158-.409-.256-.765-.293-.465-.045-.831-.182-1.097-.41a1.076 1.076 0 0 1-.399-.85c0-.247.069-.457.208-.63.139-.172.326-.303.562-.393.24-.09.507-.135.799-.135.341 0 .62.07.838.208.217.139.397.322.54.551a.346.346 0 0 1 .062.236.224.224 0 0 1-.107.169.263.263 0 0 1-.231.028.316.316 0 0 1-.185-.146 1.04 1.04 0 0 0-.366-.377c-.146-.09-.335-.137-.568-.14-.277-.004-.51.048-.697.157a.522.522 0 0 0-.281.49c0 .112.028.22.084.325.06.102.167.19.321.265.157.075.382.127.674.157.446.045.793.182 1.041.41.251.226.376.524.376.895 0 .214-.045.4-.135.556a1.198 1.198 0 0 1-.354.4 1.572 1.572 0 0 1-.506.236 2.154 2.154 0 0 1-.585.079zm4.485.034a2.21 2.21 0 0 1-.956-.197 1.603 1.603 0 0 1-.652-.557 1.45 1.45 0 0 1-.231-.81v-2.626c0-.086.028-.156.084-.208a.285.285 0 0 1 .208-.084.27.27 0 0 1 .208.084.27.27 0 0 1 .085.208v2.626a.95.95 0 0 0 .157.54c.109.154.257.276.444.366.192.086.409.129.653.129.236 0 .444-.043.624-.13.184-.09.326-.211.427-.365a.951.951 0 0 0 .158-.54v-2.626c0-.086.028-.156.084-.208a.283.283 0 0 1 .208-.084.28.28 0 0 1 .287.292v2.626c0 .304-.077.574-.231.81a1.536 1.536 0 0 1-.629.557 2.1 2.1 0 0 1-.928.197zm3.372-.091a.283.283 0 0 1-.208-.084.283.283 0 0 1-.084-.208v-3.807c0-.086.028-.156.084-.208a.283.283 0 0 1 .208-.084h1.013c.281 0 .53.06.747.18.218.116.387.277.507.483.123.206.185.446.185.72 0 .27-.067.508-.202.714a1.28 1.28 0 0 1-.551.461l.86 1.384c.067.108.077.211.028.309-.049.094-.133.14-.253.14a.284.284 0 0 1-.253-.14l-.967-1.552h-.821v1.4a.28.28 0 0 1-.085.208.269.269 0 0 1-.208.084zm.293-2.232h.72a.929.929 0 0 0 .629-.214.718.718 0 0 0 .248-.562.803.803 0 0 0-.248-.607.875.875 0 0 0-.629-.237h-.72v1.62zm5.105 2.289c-.304 0-.589-.056-.855-.169a2.227 2.227 0 0 1-.692-.478 2.329 2.329 0 0 1-.461-.72 2.4 2.4 0 0 1-.163-.888c0-.315.055-.608.163-.877a2.183 2.183 0 0 1 1.153-1.198c.263-.117.547-.175.855-.175.289 0 .536.038.742.113.21.075.42.199.63.371a.316.316 0 0 1 .09.107.304.304 0 0 1 .022.123.237.237 0 0 1-.078.18.287.287 0 0 1-.388.006 1.655 1.655 0 0 0-.433-.276 1.5 1.5 0 0 0-.585-.095c-.221 0-.429.045-.624.135-.195.09-.368.214-.518.371a1.78 1.78 0 0 0-.466 1.215 1.761 1.761 0 0 0 .466 1.22 1.53 1.53 0 0 0 1.142.501c.165 0 .322-.025.472-.074.15-.048.295-.118.433-.208v-1h-.776a.306.306 0 0 1-.208-.074.235.235 0 0 1-.084-.185c0-.075.028-.137.084-.186a.307.307 0 0 1 .208-.073h1.052c.086 0 .155.028.208.084a.284.284 0 0 1 .079.208v1.344a.302.302 0 0 1-.023.113.229.229 0 0 1-.067.096 2.126 2.126 0 0 1-.647.37 2.261 2.261 0 0 1-.731.119zm2.864-.057a.283.283 0 0 1-.208-.084.283.283 0 0 1-.084-.208v-3.807c0-.086.028-.156.084-.208a.283.283 0 0 1 .208-.084h2.542a.28.28 0 0 1 .208.078.254.254 0 0 1 .079.197.247.247 0 0 1-.079.191.293.293 0 0 1-.208.073h-2.249v1.367h1.614a.28.28 0 0 1 .208.079.25.25 0 0 1 .078.19.268.268 0 0 1-.078.198.295.295 0 0 1-.208.073h-1.614v1.406h2.249c.086 0 .156.024.208.073a.247.247 0 0 1 .079.19c0 .083-.026.15-.079.203a.293.293 0 0 1-.208.074h-2.542zm4.106 0a.284.284 0 0 1-.208-.084.283.283 0 0 1-.084-.208v-3.807c0-.086.028-.156.084-.208a.285.285 0 0 1 .208-.084h1.013c.281 0 .53.06.747.18.218.116.387.277.507.483.123.206.185.446.185.72 0 .27-.067.508-.202.714a1.28 1.28 0 0 1-.551.461l.86 1.384c.067.108.077.211.028.309-.049.094-.133.14-.253.14a.284.284 0 0 1-.253-.14l-.967-1.552h-.821v1.4a.28.28 0 0 1-.085.208.269.269 0 0 1-.208.084zm.293-2.232h.72a.927.927 0 0 0 .629-.214.718.718 0 0 0 .248-.562.803.803 0 0 0-.248-.607.873.873 0 0 0-.629-.237h-.72v1.62zm4.453 2.232a.276.276 0 0 1-.203-.084.283.283 0 0 1-.084-.208v-1.31l-1.502-2.334a.322.322 0 0 1-.056-.22.254.254 0 0 1 .096-.168.297.297 0 0 1 .191-.067c.064 0 .114.015.152.045a.427.427 0 0 1 .107.118l1.315 2.086 1.339-2.109a.289.289 0 0 1 .259-.14.22.22 0 0 1 .168.073.282.282 0 0 1 .079.174.323.323 0 0 1-.056.208l-1.513 2.334v1.31a.283.283 0 0 1-.084.208.284.284 0 0 1-.208.084zM.595 29.72a.58.58 0 0 1-.427-.168.58.58 0 0 1-.168-.428v-10.73c0-.173.056-.315.168-.427a.58.58 0 0 1 .427-.168h2.748c.875 0 1.674.147 2.396.442a5.315 5.315 0 0 1 1.893 1.237 5.436 5.436 0 0 1 1.22 1.877c.296.723.444 1.521.444 2.397 0 .875-.148 1.679-.443 2.411a5.61 5.61 0 0 1-1.221 1.893 5.6 5.6 0 0 1-1.893 1.236c-.722.285-1.521.428-2.396.428H.595zm.596-1.069h2.152c.936 0 1.76-.208 2.472-.626a4.561 4.561 0 0 0 1.695-1.74c.407-.742.61-1.587.61-2.533 0-.947-.203-1.786-.61-2.519a4.424 4.424 0 0 0-1.695-1.74c-.712-.417-1.536-.626-2.472-.626H1.19v9.784zm16.988 1.221c-.885 0-1.7-.152-2.442-.458a5.86 5.86 0 0 1-1.939-1.282 5.98 5.98 0 0 1-1.267-1.938c-.295-.743-.442-1.557-.442-2.442 0-.875.147-1.684.442-2.427a5.981 5.981 0 0 1 1.267-1.939 5.857 5.857 0 0 1 1.939-1.282 6.37 6.37 0 0 1 2.442-.458 6.33 6.33 0 0 1 2.427.458 5.858 5.858 0 0 1 1.938 1.282c.55.55.972 1.196 1.267 1.939.305.742.458 1.552.458 2.427 0 .885-.152 1.699-.458 2.442a5.667 5.667 0 0 1-1.267 1.938 5.86 5.86 0 0 1-1.938 1.282 6.323 6.323 0 0 1-2.427.458zm0-1.13c.702 0 1.353-.121 1.954-.366a4.73 4.73 0 0 0 1.557-1.053 4.876 4.876 0 0 0 1.037-1.587c.245-.61.367-1.272.367-1.984 0-.703-.122-1.354-.367-1.954a4.671 4.671 0 0 0-1.037-1.588 4.442 4.442 0 0 0-1.557-1.053 4.958 4.958 0 0 0-1.954-.381 5.01 5.01 0 0 0-1.97.381c-.6.244-1.123.596-1.571 1.053a4.787 4.787 0 0 0-1.023 1.588 5.137 5.137 0 0 0-.366 1.954 5.3 5.3 0 0 0 .366 1.984c.244.6.585 1.13 1.023 1.587.447.448.972.8 1.572 1.053.6.245 1.257.367 1.969.367zm14.826 1.13a5.734 5.734 0 0 1-2.32-.473 6.08 6.08 0 0 1-1.892-1.313 6.394 6.394 0 0 1-1.267-1.953 6.202 6.202 0 0 1-.458-2.381c0-.835.147-1.618.443-2.351a6.16 6.16 0 0 1 1.267-1.954 6.08 6.08 0 0 1 1.892-1.312 5.617 5.617 0 0 1 2.335-.489c.733 0 1.4.107 2 .32a5.7 5.7 0 0 1 1.74 1.023.369.369 0 0 1 .153.26.43.43 0 0 1-.03.275.4.4 0 0 1-.184.183.273.273 0 0 1-.153.183.53.53 0 0 1-.29.046.585.585 0 0 1-.305-.138c-.397-.346-.83-.6-1.297-.763-.468-.173-1.013-.26-1.634-.26-.66 0-1.282.133-1.862.398a4.965 4.965 0 0 0-1.51 1.083 5.228 5.228 0 0 0-1.039 1.588 5.015 5.015 0 0 0-.366 1.908c0 .692.122 1.338.366 1.938.255.6.6 1.13 1.038 1.587.438.458.941.82 1.511 1.084.58.255 1.201.382 1.862.382.56 0 1.09-.092 1.588-.275a5.309 5.309 0 0 0 1.42-.794.47.47 0 0 1 .381-.122c.142.02.265.082.366.183a.537.537 0 0 1 .153.397.576.576 0 0 1-.046.23.618.618 0 0 1-.122.198 4.6 4.6 0 0 1-1.74 1.022 6.888 6.888 0 0 1-2 .29zm11.105-.152a.613.613 0 0 1-.428-.168.613.613 0 0 1-.168-.428V17.8h1.19v11.325a.613.613 0 0 1-.167.428.579.579 0 0 1-.428.168zm-4.213-10.837a.537.537 0 0 1-.397-.153.518.518 0 0 1-.153-.382c0-.162.051-.295.153-.397a.537.537 0 0 1 .397-.152h8.44c.163 0 .296.05.397.152a.537.537 0 0 1 .153.397c0 .153-.05.28-.153.382a.537.537 0 0 1-.396.152h-8.441zm16.721 10.989c-.886 0-1.7-.152-2.443-.458a5.86 5.86 0 0 1-1.938-1.282 5.98 5.98 0 0 1-1.267-1.938 6.56 6.56 0 0 1-.443-2.442c0-.875.148-1.684.443-2.427a5.981 5.981 0 0 1 1.267-1.939 5.858 5.858 0 0 1 1.938-1.282 6.372 6.372 0 0 1 2.443-.458c.875 0 1.684.153 2.426.458a5.858 5.858 0 0 1 1.939 1.282c.55.55.972 1.196 1.267 1.939.305.742.458 1.552.458 2.427a6.37 6.37 0 0 1-.458 2.442 5.665 5.665 0 0 1-1.267 1.938 5.86 5.86 0 0 1-1.938 1.282 6.323 6.323 0 0 1-2.427.458zm0-1.13c.702 0 1.353-.121 1.953-.366a4.72 4.72 0 0 0 1.557-1.053 4.876 4.876 0 0 0 1.038-1.587c.244-.61.367-1.272.367-1.984 0-.703-.123-1.354-.367-1.954a4.671 4.671 0 0 0-1.038-1.588 4.441 4.441 0 0 0-1.557-1.053 4.957 4.957 0 0 0-1.953-.381c-.713 0-1.37.127-1.97.381-.6.244-1.124.596-1.572 1.053a4.789 4.789 0 0 0-1.022 1.588 5.135 5.135 0 0 0-.367 1.954 5.3 5.3 0 0 0 .367 1.984 5 5 0 0 0 1.022 1.587c.448.448.972.8 1.573 1.053.6.245 1.256.367 1.969.367zm10.362.978a.58.58 0 0 1-.427-.168.58.58 0 0 1-.168-.428v-10.73c0-.173.056-.315.168-.427a.58.58 0 0 1 .427-.168h2.854c.743 0 1.404.157 1.985.473a3.34 3.34 0 0 1 1.358 1.297c.336.55.504 1.186.504 1.908 0 .692-.168 1.308-.504 1.847-.326.54-.778.962-1.358 1.267-.58.305-1.242.458-1.985.458h-2.259v4.075a.58.58 0 0 1-.168.428.579.579 0 0 1-.427.168zm6.38 0a.598.598 0 0 1-.32-.077.75.75 0 0 1-.199-.229l-2.93-4.67 1.19-.305 2.732 4.365c.153.244.178.458.077.64-.092.184-.275.276-.55.276zm-5.785-5.816h2.26c.518 0 .976-.102 1.373-.305.407-.214.728-.504.962-.87.234-.366.35-.784.35-1.252 0-.498-.116-.936-.35-1.312a2.412 2.412 0 0 0-.962-.9c-.397-.215-.855-.321-1.374-.321h-2.259v4.96zm19.112 5.816c-.254 0-.437-.127-.55-.382L81.606 18.73c-.112-.285-.123-.509-.031-.672.102-.173.275-.26.519-.26.254 0 .438.128.55.382l4.212 10.074h-.336l4.198-10.043c.061-.153.137-.26.229-.32a.65.65 0 0 1 .366-.092c.234 0 .392.091.473.274.082.174.077.372-.015.596l-4.548 10.67a.67.67 0 0 1-.23.304.618.618 0 0 1-.305.077zm6.465 0c-.234 0-.402-.097-.504-.29a.618.618 0 0 1-.03-.565l4.487-10.654c.112-.275.305-.412.58-.412.264 0 .453.137.565.412l4.502 10.67a.54.54 0 0 1-.045.564.54.54 0 0 1-.489.275.643.643 0 0 1-.336-.092.696.696 0 0 1-.229-.275l-4.197-10.18h.473l-4.228 10.18a.56.56 0 0 1-.229.275.564.564 0 0 1-.32.092zm1.007-2.84l.458-1.022h6.197l.458 1.023h-7.113zm15.265 2.992a5.807 5.807 0 0 1-1.816-.274 4.497 4.497 0 0 1-1.435-.81 3.539 3.539 0 0 1-.931-1.205c-.081-.163-.086-.31-.015-.443a.625.625 0 0 1 .397-.29.531.531 0 0 1 .412.046.706.706 0 0 1 .321.32c.152.296.376.56.671.794a3.35 3.35 0 0 0 1.053.55c.407.122.855.183 1.343.183.54 0 1.018-.087 1.435-.26a2.27 2.27 0 0 0 .977-.778c.244-.346.366-.763.366-1.252 0-.62-.228-1.155-.686-1.602-.458-.448-1.176-.733-2.153-.855-1.19-.143-2.121-.509-2.793-1.1-.671-.6-1.007-1.332-1.007-2.197 0-.62.163-1.16.488-1.618.336-.458.794-.809 1.374-1.053.58-.255 1.246-.382 1.999-.382.56 0 1.069.092 1.527.275.458.173.855.407 1.19.702.346.285.626.6.84.946.102.163.132.32.091.474a.504.504 0 0 1-.259.35.634.634 0 0 1-.824-.259 3.174 3.174 0 0 0-.58-.656 2.399 2.399 0 0 0-.824-.504c-.326-.122-.718-.188-1.176-.198-.804 0-1.45.173-1.938.519-.489.335-.733.829-.733 1.48 0 .346.092.667.275.962.183.285.483.534.9.748.428.203.998.356 1.71.458 1.272.183 2.213.574 2.824 1.175.62.59.931 1.364.931 2.32 0 .55-.102 1.038-.306 1.465a2.916 2.916 0 0 1-.839 1.084 3.829 3.829 0 0 1-1.267.656 5.04 5.04 0 0 1-1.542.23zm8.26-.152a.58.58 0 0 1-.428-.168.579.579 0 0 1-.168-.428v-10.73c0-.173.056-.315.168-.427a.58.58 0 0 1 .428-.168c.173 0 .315.056.427.168a.579.579 0 0 1 .168.427v10.73a.579.579 0 0 1-.168.428.578.578 0 0 1-.427.168zm5.469 0a.611.611 0 0 1-.427-.168.579.579 0 0 1-.168-.428v-10.73c0-.163.056-.3.168-.412a.584.584 0 0 1 .427-.183c.163 0 .3.06.412.183.122.112.183.25.183.412V28.59h5.968c.163 0 .301.056.412.168a.49.49 0 0 1 .184.397c0 .163-.061.3-.184.412a.588.588 0 0 1-.412.153h-6.563zm10.88 0a.578.578 0 0 1-.427-.168.579.579 0 0 1-.168-.428v-10.73c0-.173.056-.315.168-.427a.578.578 0 0 1 .427-.168h7.159c.163 0 .3.056.412.168a.507.507 0 0 1 .183.412.522.522 0 0 1-.183.397.56.56 0 0 1-.412.168h-6.564v4.212h4.778c.173 0 .315.056.427.168a.56.56 0 0 1 .168.412.578.578 0 0 1-.595.58h-4.778v4.259h6.564c.163 0 .3.056.412.168a.522.522 0 0 1 .183.397.554.554 0 0 1-.183.427.59.59 0 0 1-.412.153h-7.159zm15.147 0c-.254 0-.437-.127-.549-.382l-4.533-10.608c-.112-.285-.122-.509-.031-.672.102-.173.275-.26.519-.26.254 0 .438.128.55.382l4.212 10.074h-.335l4.197-10.043c.061-.153.137-.26.229-.32a.652.652 0 0 1 .366-.092c.234 0 .392.091.473.274.082.174.077.372-.015.596l-4.548 10.67a.674.674 0 0 1-.229.304.621.621 0 0 1-.306.077z" fill="#000"/></svg>