<svg width="155" height="50" viewBox="0 0 155 50" fill="none" xmlns="http://www.w3.org/2000/svg">
<path d="M117.771 42.7741V49H43.8628V34.7406" stroke="black" stroke-width="2"/>
<path d="M43.8628 13.6527V0.999989H117.771V13.6527" stroke="black" stroke-width="2"/>
<path d="M4.34932 10.841C4.26685 10.841 4.19749 10.8129 4.14126 10.7566C4.08502 10.7004 4.0569 10.6311 4.0569 10.5486V6.74151C4.0569 6.65529 4.08502 6.58593 4.14126 6.53345C4.19749 6.47721 4.26685 6.4491 4.34932 6.4491H5.69332C5.94825 6.4491 6.17131 6.49971 6.36251 6.60093C6.55746 6.6984 6.70929 6.83524 6.81801 7.01144C6.93048 7.18764 6.98671 7.39008 6.98671 7.61877C6.98671 7.80247 6.9361 7.9693 6.83488 8.11926C6.73741 8.26546 6.60244 8.38168 6.42999 8.46791C6.67742 8.52789 6.87612 8.64598 7.02608 8.82218C7.17603 8.99839 7.25101 9.22895 7.25101 9.51387C7.25101 9.77254 7.18916 10.0012 7.06544 10.1999C6.94547 10.3986 6.77677 10.5561 6.55933 10.6723C6.34189 10.7848 6.09259 10.841 5.81141 10.841H4.34932ZM4.64174 8.25422H5.69332C5.90701 8.25422 6.08134 8.20173 6.2163 8.09676C6.35501 7.99179 6.42437 7.83246 6.42437 7.61877C6.42437 7.40508 6.35501 7.24762 6.2163 7.1464C6.08134 7.04143 5.90701 6.98895 5.69332 6.98895H4.64174V8.25422ZM4.64174 10.3011H5.81141C6.06634 10.3011 6.27629 10.2355 6.44124 10.1043C6.60619 9.96936 6.68867 9.77254 6.68867 9.51387C6.68867 9.27393 6.60619 9.09398 6.44124 8.97402C6.27629 8.85405 6.06634 8.79407 5.81141 8.79407H4.64174V10.3011Z" fill="black"/>
<path d="M8.6943 10.841C8.61182 10.841 8.54247 10.8129 8.48623 10.7566C8.43 10.7004 8.40188 10.6311 8.40188 10.5486V6.74151C8.40188 6.65529 8.43 6.58593 8.48623 6.53345C8.54247 6.47721 8.61182 6.4491 8.6943 6.4491H11.2361C11.3223 6.4491 11.3917 6.47534 11.4442 6.52782C11.4966 6.57656 11.5229 6.64217 11.5229 6.72464C11.5229 6.80337 11.4966 6.86711 11.4442 6.91584C11.3917 6.96458 11.3223 6.98895 11.2361 6.98895H8.98672V8.35544H10.6006C10.6869 8.35544 10.7562 8.38168 10.8087 8.43417C10.8612 8.4829 10.8874 8.54664 10.8874 8.62536C10.8874 8.70409 10.8612 8.7697 10.8087 8.82218C10.7562 8.87092 10.6869 8.89529 10.6006 8.89529H8.98672V10.3011H11.2361C11.3223 10.3011 11.3917 10.3255 11.4442 10.3743C11.4966 10.423 11.5229 10.4867 11.5229 10.5654C11.5229 10.6479 11.4966 10.7154 11.4442 10.7679C11.3917 10.8166 11.3223 10.841 11.2361 10.841H8.6943Z" fill="black"/>
<path d="M12.4462 10.841C12.3413 10.841 12.2607 10.796 12.2044 10.706C12.1482 10.6161 12.1426 10.5205 12.1875 10.4192L13.7677 6.64592C13.824 6.5147 13.9158 6.4491 14.0433 6.4491C14.1782 6.4491 14.2701 6.5147 14.3188 6.64592L15.9046 10.4305C15.9459 10.5355 15.9384 10.6311 15.8821 10.7173C15.8297 10.7998 15.7491 10.841 15.6403 10.841C15.5841 10.841 15.5297 10.826 15.4773 10.796C15.4285 10.7623 15.3929 10.7173 15.3704 10.661L15.0555 9.87377H13.0367L12.7162 10.661C12.6899 10.721 12.6505 10.766 12.5981 10.796C12.5493 10.826 12.4987 10.841 12.4462 10.841ZM13.2335 9.39015H14.8587L14.0545 7.38821L13.2335 9.39015Z" fill="black"/>
<path d="M18.5243 10.931C18.1644 10.931 17.8458 10.8654 17.5683 10.7342C17.2909 10.5992 17.0735 10.4136 16.916 10.1774C16.7623 9.94125 16.6855 9.67132 16.6855 9.36766V6.74151C16.6855 6.65529 16.7136 6.58593 16.7698 6.53345C16.826 6.47721 16.8954 6.4491 16.9779 6.4491C17.0641 6.4491 17.1335 6.47721 17.1859 6.53345C17.2422 6.58593 17.2703 6.65529 17.2703 6.74151V9.36766C17.2703 9.5701 17.3228 9.75005 17.4278 9.90751C17.5365 10.0612 17.6846 10.1831 17.872 10.273C18.0632 10.3593 18.2806 10.4024 18.5243 10.4024C18.7605 10.4024 18.9686 10.3593 19.1485 10.273C19.3322 10.1831 19.4747 10.0612 19.5759 9.90751C19.6809 9.75005 19.7334 9.5701 19.7334 9.36766V6.74151C19.7334 6.65529 19.7615 6.58593 19.8177 6.53345C19.8739 6.47721 19.9433 6.4491 20.0258 6.4491C20.112 6.4491 20.1814 6.47721 20.2338 6.53345C20.2863 6.58593 20.3126 6.65529 20.3126 6.74151V9.36766C20.3126 9.67132 20.2357 9.94125 20.082 10.1774C19.9321 10.4136 19.7221 10.5992 19.4522 10.7342C19.1823 10.8654 18.873 10.931 18.5243 10.931Z" fill="black"/>
<path d="M23.0159 10.841C22.9334 10.841 22.8641 10.8129 22.8078 10.7566C22.7516 10.7004 22.7235 10.6311 22.7235 10.5486V6.98895H21.5088C21.4301 6.98895 21.3645 6.96458 21.312 6.91584C21.2633 6.86336 21.2389 6.79775 21.2389 6.71902C21.2389 6.64029 21.2633 6.57656 21.312 6.52782C21.3645 6.47534 21.4301 6.4491 21.5088 6.4491H24.5174C24.5961 6.4491 24.6598 6.47534 24.7086 6.52782C24.761 6.57656 24.7873 6.64029 24.7873 6.71902C24.7873 6.79775 24.761 6.86336 24.7086 6.91584C24.6598 6.96458 24.5961 6.98895 24.5174 6.98895H23.3083V10.5486C23.3083 10.6311 23.2802 10.7004 23.224 10.7566C23.1677 10.8129 23.0984 10.841 23.0159 10.841Z" fill="black"/>
<path d="M27.0318 10.841C26.9531 10.841 26.8856 10.8129 26.8293 10.7566C26.7731 10.7004 26.745 10.6311 26.745 10.5486V9.23832L25.2435 6.90459C25.1948 6.82587 25.1761 6.75276 25.1873 6.68528C25.1985 6.61405 25.2304 6.55782 25.2829 6.51658C25.3391 6.47159 25.4029 6.4491 25.4741 6.4491C25.5378 6.4491 25.5884 6.46409 25.6259 6.49408C25.6634 6.52033 25.699 6.55969 25.7328 6.61218L27.0487 8.69847L28.387 6.58968C28.447 6.49596 28.5332 6.4491 28.6457 6.4491C28.7132 6.4491 28.7694 6.47346 28.8144 6.5222C28.8594 6.56719 28.8856 6.6253 28.8931 6.69653C28.9006 6.76401 28.8819 6.83336 28.8369 6.90459L27.3242 9.23832V10.5486C27.3242 10.6311 27.2961 10.7004 27.2398 10.7566C27.1836 10.8129 27.1143 10.841 27.0318 10.841Z" fill="black"/>
<path d="M31.9854 10.841C31.9029 10.841 31.8336 10.8129 31.7773 10.7566C31.7211 10.7004 31.693 10.6311 31.693 10.5486V6.74151C31.693 6.65529 31.7211 6.58593 31.7773 6.53345C31.8336 6.47721 31.9029 6.4491 31.9854 6.4491H33.3294C33.5843 6.4491 33.8074 6.49971 33.9986 6.60093C34.1935 6.6984 34.3454 6.83524 34.4541 7.01144C34.5666 7.18764 34.6228 7.39008 34.6228 7.61877C34.6228 7.80247 34.5722 7.9693 34.471 8.11926C34.3735 8.26546 34.2385 8.38168 34.0661 8.46791C34.3135 8.52789 34.5122 8.64598 34.6622 8.82218C34.8121 8.99839 34.8871 9.22895 34.8871 9.51387C34.8871 9.77254 34.8252 10.0012 34.7015 10.1999C34.5816 10.3986 34.4129 10.5561 34.1954 10.6723C33.978 10.7848 33.7287 10.841 33.4475 10.841H31.9854ZM32.2778 8.25422H33.3294C33.5431 8.25422 33.7174 8.20173 33.8524 8.09676C33.9911 7.99179 34.0605 7.83246 34.0605 7.61877C34.0605 7.40508 33.9911 7.24762 33.8524 7.1464C33.7174 7.04143 33.5431 6.98895 33.3294 6.98895H32.2778V8.25422ZM32.2778 10.3011H33.4475C33.7024 10.3011 33.9124 10.2355 34.0773 10.1043C34.2423 9.96936 34.3248 9.77254 34.3248 9.51387C34.3248 9.27393 34.2423 9.09398 34.0773 8.97402C33.9124 8.85405 33.7024 8.79407 33.4475 8.79407H32.2778V10.3011Z" fill="black"/>
<path d="M37.0738 10.841C36.9951 10.841 36.9276 10.8129 36.8713 10.7566C36.8151 10.7004 36.787 10.6311 36.787 10.5486V9.23832L35.2855 6.90459C35.2368 6.82587 35.218 6.75276 35.2293 6.68528C35.2405 6.61405 35.2724 6.55782 35.3249 6.51658C35.3811 6.47159 35.4449 6.4491 35.5161 6.4491C35.5798 6.4491 35.6304 6.46409 35.6679 6.49408C35.7054 6.52033 35.741 6.55969 35.7748 6.61218L37.0906 8.69847L38.429 6.58968C38.489 6.49596 38.5752 6.4491 38.6877 6.4491C38.7552 6.4491 38.8114 6.47346 38.8564 6.5222C38.9014 6.56719 38.9276 6.6253 38.9351 6.69653C38.9426 6.76401 38.9239 6.83336 38.8789 6.90459L37.3662 9.23832V10.5486C37.3662 10.6311 37.3381 10.7004 37.2818 10.7566C37.2256 10.8129 37.1563 10.841 37.0738 10.841Z" fill="black"/>
<path d="M98.5418 38.5565C98.4593 38.5565 98.39 38.5284 98.3337 38.4721C98.2775 38.4159 98.2494 38.3465 98.2494 38.2641V34.457C98.2494 34.3708 98.2775 34.3014 98.3337 34.2489C98.39 34.1927 98.4593 34.1646 98.5418 34.1646H99.6665C99.9477 34.1646 100.197 34.2264 100.414 34.3501C100.632 34.4739 100.801 34.6463 100.921 34.8675C101.044 35.0849 101.106 35.3361 101.106 35.621C101.106 35.8947 101.044 36.1384 100.921 36.3521C100.801 36.5658 100.632 36.7326 100.414 36.8526C100.197 36.9725 99.9477 37.0325 99.6665 37.0325H98.8342V38.2641C98.8342 38.3465 98.8061 38.4159 98.7499 38.4721C98.6974 38.5284 98.628 38.5565 98.5418 38.5565ZM98.8342 36.4927H99.6665C99.9214 36.4927 100.131 36.4121 100.296 36.2509C100.461 36.0859 100.544 35.876 100.544 35.621C100.544 35.4411 100.506 35.2836 100.431 35.1487C100.356 35.01 100.253 34.9012 100.122 34.8225C99.9908 34.7438 99.8389 34.7044 99.6665 34.7044H98.8342V36.4927Z" fill="black"/>
<path d="M102.209 38.5565C102.126 38.5565 102.057 38.5284 102 38.4721C101.948 38.4159 101.922 38.3465 101.922 38.2641V34.457C101.922 34.3745 101.95 34.3052 102.006 34.2489C102.062 34.1927 102.13 34.1646 102.209 34.1646C102.291 34.1646 102.36 34.1927 102.417 34.2489C102.473 34.3052 102.501 34.3745 102.501 34.457V37.9716H104.537C104.619 37.9716 104.688 37.9998 104.745 38.056C104.801 38.1122 104.829 38.1816 104.829 38.2641C104.829 38.3465 104.801 38.4159 104.745 38.4721C104.688 38.5284 104.619 38.5565 104.537 38.5565H102.209Z" fill="black"/>
<path d="M105.524 38.5565C105.419 38.5565 105.339 38.5115 105.282 38.4215C105.226 38.3315 105.22 38.2359 105.265 38.1347L106.846 34.3614C106.902 34.2302 106.994 34.1646 107.121 34.1646C107.256 34.1646 107.348 34.2302 107.397 34.3614L108.983 38.146C109.024 38.2509 109.016 38.3465 108.96 38.4328C108.908 38.5152 108.827 38.5565 108.718 38.5565C108.662 38.5565 108.608 38.5415 108.555 38.5115C108.506 38.4777 108.471 38.4328 108.448 38.3765L108.133 37.5892H106.115L105.794 38.3765C105.768 38.4365 105.728 38.4815 105.676 38.5115C105.627 38.5415 105.577 38.5565 105.524 38.5565ZM106.311 37.1056H107.937L107.132 35.1037L106.311 37.1056Z" fill="black"/>
<path d="M111.216 38.6127C110.976 38.6127 110.747 38.5752 110.53 38.5002C110.312 38.4253 110.123 38.3203 109.962 38.1853C109.8 38.0504 109.682 37.8948 109.607 37.7186C109.57 37.6399 109.57 37.5668 109.607 37.4993C109.649 37.4318 109.716 37.3887 109.81 37.3699C109.877 37.3549 109.943 37.3662 110.007 37.4037C110.074 37.4374 110.125 37.4899 110.159 37.5611C110.204 37.6549 110.277 37.7411 110.378 37.8198C110.483 37.8985 110.608 37.9623 110.755 38.011C110.901 38.0597 111.055 38.0841 111.216 38.0841C111.396 38.0841 111.561 38.056 111.711 37.9998C111.864 37.9435 111.988 37.8629 112.082 37.7579C112.175 37.6492 112.222 37.5161 112.222 37.3587C112.222 37.16 112.144 36.9819 111.986 36.8245C111.832 36.667 111.578 36.5695 111.221 36.532C110.756 36.4871 110.391 36.3502 110.125 36.1215C109.859 35.8928 109.726 35.6098 109.726 35.2724C109.726 35.025 109.795 34.815 109.934 34.6426C110.072 34.4701 110.26 34.3389 110.496 34.2489C110.736 34.159 111.002 34.114 111.294 34.114C111.636 34.114 111.915 34.1833 112.132 34.322C112.35 34.4607 112.53 34.6444 112.672 34.8731C112.725 34.9556 112.745 35.0343 112.734 35.1093C112.727 35.1805 112.691 35.2368 112.627 35.278C112.556 35.323 112.479 35.3324 112.397 35.3061C112.314 35.2799 112.252 35.2312 112.211 35.1599C112.117 34.9987 111.996 34.8731 111.846 34.7832C111.699 34.6932 111.51 34.6463 111.278 34.6426C111 34.6388 110.768 34.6913 110.58 34.8C110.393 34.905 110.299 35.0681 110.299 35.2893C110.299 35.4017 110.327 35.5105 110.383 35.6154C110.443 35.7166 110.55 35.8047 110.704 35.8797C110.861 35.9547 111.086 36.0072 111.379 36.0372C111.825 36.0822 112.172 36.219 112.419 36.4477C112.67 36.6726 112.796 36.9707 112.796 37.3418C112.796 37.5555 112.751 37.7411 112.661 37.8985C112.575 38.056 112.457 38.1891 112.307 38.2978C112.16 38.4028 111.992 38.4815 111.801 38.534C111.613 38.5865 111.418 38.6127 111.216 38.6127Z" fill="black"/>
<path d="M114.935 38.5565C114.853 38.5565 114.783 38.5284 114.727 38.4721C114.671 38.4159 114.643 38.3465 114.643 38.2641V34.7044H113.428C113.349 34.7044 113.284 34.6801 113.231 34.6313C113.183 34.5788 113.158 34.5132 113.158 34.4345C113.158 34.3558 113.183 34.292 113.231 34.2433C113.284 34.1908 113.349 34.1646 113.428 34.1646H116.437C116.515 34.1646 116.579 34.1908 116.628 34.2433C116.68 34.292 116.707 34.3558 116.707 34.4345C116.707 34.5132 116.68 34.5788 116.628 34.6313C116.579 34.6801 116.515 34.7044 116.437 34.7044H115.228V38.2641C115.228 38.3465 115.2 38.4159 115.143 38.4721C115.087 38.5284 115.018 38.5565 114.935 38.5565Z" fill="black"/>
<path d="M117.815 38.5565C117.733 38.5565 117.663 38.5284 117.607 38.4721C117.551 38.4159 117.523 38.3465 117.523 38.2641V34.457C117.523 34.3708 117.551 34.3014 117.607 34.2489C117.663 34.1927 117.733 34.1646 117.815 34.1646C117.901 34.1646 117.971 34.1927 118.023 34.2489C118.08 34.3014 118.108 34.3708 118.108 34.457V38.2641C118.108 38.3465 118.08 38.4159 118.023 38.4721C117.971 38.5284 117.901 38.5565 117.815 38.5565Z" fill="black"/>
<path d="M121.368 38.6127C121.064 38.6127 120.779 38.5565 120.513 38.444C120.25 38.3278 120.02 38.1685 119.821 37.966C119.626 37.7598 119.473 37.5199 119.36 37.2462C119.251 36.9725 119.197 36.6764 119.197 36.3577C119.197 36.0428 119.251 35.7504 119.36 35.4805C119.473 35.2068 119.626 34.9687 119.821 34.7663C120.02 34.5601 120.25 34.3989 120.513 34.2827C120.775 34.1665 121.06 34.1083 121.368 34.1083C121.656 34.1083 121.904 34.1458 122.11 34.2208C122.32 34.2958 122.53 34.4195 122.74 34.592C122.785 34.6294 122.815 34.6651 122.83 34.6988C122.845 34.7325 122.852 34.7738 122.852 34.8225C122.852 34.8937 122.826 34.9537 122.773 35.0025C122.725 35.0475 122.665 35.0737 122.594 35.0812C122.522 35.0849 122.453 35.0606 122.385 35.0081C122.247 34.8881 122.102 34.7963 121.952 34.7325C121.806 34.6688 121.611 34.6369 121.368 34.6369C121.146 34.6369 120.938 34.6819 120.743 34.7719C120.548 34.8619 120.376 34.9856 120.226 35.1431C120.08 35.3005 119.965 35.4842 119.883 35.6941C119.801 35.9003 119.759 36.1215 119.759 36.3577C119.759 36.5976 119.801 36.8226 119.883 37.0325C119.965 37.2387 120.08 37.4205 120.226 37.578C120.376 37.7355 120.548 37.8592 120.743 37.9491C120.938 38.0354 121.146 38.0785 121.368 38.0785C121.559 38.0785 121.739 38.0466 121.907 37.9829C122.08 37.9154 122.245 37.8236 122.402 37.7073C122.47 37.6586 122.535 37.638 122.599 37.6455C122.667 37.6492 122.723 37.6755 122.768 37.7242C122.813 37.7692 122.835 37.8329 122.835 37.9154C122.835 37.9941 122.805 38.0635 122.745 38.1235C122.34 38.4496 121.881 38.6127 121.368 38.6127Z" fill="black"/>
<path d="M127.15 38.6127C126.91 38.6127 126.682 38.5752 126.464 38.5002C126.247 38.4253 126.057 38.3203 125.896 38.1853C125.735 38.0504 125.617 37.8948 125.542 37.7186C125.504 37.6399 125.504 37.5668 125.542 37.4993C125.583 37.4318 125.651 37.3887 125.744 37.3699C125.812 37.3549 125.877 37.3662 125.941 37.4037C126.009 37.4374 126.059 37.4899 126.093 37.5611C126.138 37.6549 126.211 37.7411 126.312 37.8198C126.417 37.8985 126.543 37.9623 126.689 38.011C126.835 38.0597 126.989 38.0841 127.15 38.0841C127.33 38.0841 127.495 38.056 127.645 37.9998C127.799 37.9435 127.923 37.8629 128.016 37.7579C128.11 37.6492 128.157 37.5161 128.157 37.3587C128.157 37.16 128.078 36.9819 127.921 36.8245C127.767 36.667 127.512 36.5695 127.156 36.532C126.691 36.4871 126.325 36.3502 126.059 36.1215C125.793 35.8928 125.66 35.6098 125.66 35.2724C125.66 35.025 125.729 34.815 125.868 34.6426C126.007 34.4701 126.194 34.3389 126.43 34.2489C126.67 34.159 126.937 34.114 127.229 34.114C127.57 34.114 127.849 34.1833 128.067 34.322C128.284 34.4607 128.464 34.6444 128.607 34.8731C128.659 34.9556 128.68 35.0343 128.669 35.1093C128.661 35.1805 128.625 35.2368 128.562 35.278C128.491 35.323 128.414 35.3324 128.331 35.3061C128.249 35.2799 128.187 35.2312 128.146 35.1599C128.052 34.9987 127.93 34.8731 127.78 34.7832C127.634 34.6932 127.445 34.6463 127.212 34.6426C126.935 34.6388 126.702 34.6913 126.515 34.8C126.327 34.905 126.234 35.0681 126.234 35.2893C126.234 35.4017 126.262 35.5105 126.318 35.6154C126.378 35.7166 126.485 35.8047 126.639 35.8797C126.796 35.9547 127.021 36.0072 127.313 36.0372C127.759 36.0822 128.106 36.219 128.354 36.4477C128.605 36.6726 128.73 36.9707 128.73 37.3418C128.73 37.5555 128.685 37.7411 128.595 37.8985C128.509 38.056 128.391 38.1891 128.241 38.2978C128.095 38.4028 127.926 38.4815 127.735 38.534C127.548 38.5865 127.353 38.6127 127.15 38.6127Z" fill="black"/>
<path d="M131.635 38.6465C131.275 38.6465 130.956 38.5808 130.679 38.4496C130.401 38.3147 130.184 38.1291 130.027 37.8929C129.873 37.6567 129.796 37.3868 129.796 37.0831V34.457C129.796 34.3708 129.824 34.3014 129.88 34.2489C129.937 34.1927 130.006 34.1646 130.088 34.1646C130.175 34.1646 130.244 34.1927 130.296 34.2489C130.353 34.3014 130.381 34.3708 130.381 34.457V37.0831C130.381 37.2856 130.433 37.4655 130.538 37.623C130.647 37.7767 130.795 37.8985 130.982 37.9885C131.174 38.0747 131.391 38.1178 131.635 38.1178C131.871 38.1178 132.079 38.0747 132.259 37.9885C132.443 37.8985 132.585 37.7767 132.686 37.623C132.791 37.4655 132.844 37.2856 132.844 37.0831V34.457C132.844 34.3708 132.872 34.3014 132.928 34.2489C132.984 34.1927 133.054 34.1646 133.136 34.1646C133.222 34.1646 133.292 34.1927 133.344 34.2489C133.397 34.3014 133.423 34.3708 133.423 34.457V37.0831C133.423 37.3868 133.346 37.6567 133.192 37.8929C133.043 38.1291 132.833 38.3147 132.563 38.4496C132.293 38.5808 131.983 38.6465 131.635 38.6465Z" fill="black"/>
<path d="M135.007 38.5565C134.925 38.5565 134.855 38.5284 134.799 38.4721C134.743 38.4159 134.715 38.3465 134.715 38.2641V34.457C134.715 34.3708 134.743 34.3014 134.799 34.2489C134.855 34.1927 134.925 34.1646 135.007 34.1646H136.02C136.301 34.1646 136.55 34.2246 136.767 34.3445C136.985 34.4607 137.154 34.6219 137.274 34.8281C137.397 35.0343 137.459 35.2743 137.459 35.5479C137.459 35.8179 137.392 36.0559 137.257 36.2621C137.122 36.4646 136.938 36.6183 136.706 36.7232L137.566 38.1066C137.633 38.2153 137.643 38.3184 137.594 38.4159C137.545 38.5096 137.461 38.5565 137.341 38.5565C137.232 38.5565 137.148 38.5096 137.088 38.4159L136.121 36.8638C136.087 36.8638 136.053 36.8638 136.02 36.8638H135.3V38.2641C135.3 38.3465 135.272 38.4159 135.215 38.4721C135.163 38.5284 135.094 38.5565 135.007 38.5565ZM135.3 36.324H136.02C136.274 36.324 136.484 36.2527 136.649 36.1103C136.814 35.9641 136.897 35.7766 136.897 35.5479C136.897 35.3005 136.814 35.0981 136.649 34.9406C136.484 34.7832 136.274 34.7044 136.02 34.7044H135.3V36.324Z" fill="black"/>
<path d="M140.405 38.6127C140.101 38.6127 139.816 38.5565 139.55 38.444C139.288 38.3278 139.057 38.1685 138.858 37.966C138.663 37.7598 138.51 37.5199 138.397 37.2462C138.289 36.9725 138.234 36.6764 138.234 36.3577C138.234 36.0428 138.289 35.7504 138.397 35.4805C138.51 35.2068 138.663 34.9687 138.858 34.7663C139.057 34.5601 139.288 34.3989 139.55 34.2827C139.813 34.1665 140.097 34.1083 140.405 34.1083C140.694 34.1083 140.941 34.1458 141.147 34.2208C141.357 34.2958 141.567 34.4195 141.777 34.592C141.822 34.6294 141.852 34.6651 141.867 34.6988C141.882 34.7325 141.889 34.7738 141.889 34.8225C141.889 34.8937 141.863 34.9537 141.811 35.0025C141.762 35.0512 141.7 35.0774 141.625 35.0812C141.554 35.0849 141.486 35.0606 141.423 35.0081C141.284 34.8881 141.14 34.7963 140.99 34.7325C140.844 34.6688 140.649 34.6369 140.405 34.6369C140.184 34.6369 139.976 34.6819 139.781 34.7719C139.586 34.8619 139.413 34.9856 139.263 35.1431C139.117 35.3005 139.003 35.4842 138.92 35.6941C138.838 35.9003 138.797 36.1215 138.797 36.3577C138.797 36.5976 138.838 36.8226 138.92 37.0325C139.003 37.2387 139.117 37.4205 139.263 37.578C139.413 37.7355 139.586 37.8592 139.781 37.9491C139.976 38.0354 140.184 38.0785 140.405 38.0785C140.57 38.0785 140.727 38.0541 140.877 38.0054C141.027 37.9566 141.172 37.8873 141.31 37.7973V36.7963H140.534C140.452 36.7963 140.382 36.772 140.326 36.7232C140.27 36.6745 140.242 36.6126 140.242 36.5377C140.242 36.4627 140.27 36.4008 140.326 36.3521C140.382 36.3034 140.452 36.279 140.534 36.279H141.586C141.672 36.279 141.741 36.3071 141.794 36.3633C141.846 36.4158 141.873 36.4852 141.873 36.5714V37.9154C141.873 37.9529 141.865 37.9904 141.85 38.0279C141.839 38.0616 141.816 38.0935 141.783 38.1235C141.584 38.2884 141.368 38.4121 141.136 38.4946C140.904 38.5733 140.66 38.6127 140.405 38.6127Z" fill="black"/>
<path d="M143.269 38.5565C143.187 38.5565 143.117 38.5284 143.061 38.4721C143.005 38.4159 142.977 38.3465 142.977 38.2641V34.457C142.977 34.3708 143.005 34.3014 143.061 34.2489C143.117 34.1927 143.187 34.1646 143.269 34.1646H145.811C145.897 34.1646 145.967 34.1908 146.019 34.2433C146.072 34.292 146.098 34.3576 146.098 34.4401C146.098 34.5189 146.072 34.5826 146.019 34.6313C145.967 34.6801 145.897 34.7044 145.811 34.7044H143.562V36.0709H145.176C145.262 36.0709 145.331 36.0972 145.384 36.1496C145.436 36.1984 145.462 36.2621 145.462 36.3408C145.462 36.4196 145.436 36.4852 145.384 36.5377C145.331 36.5864 145.262 36.6108 145.176 36.6108H143.562V38.0166H145.811C145.897 38.0166 145.967 38.041 146.019 38.0897C146.072 38.1385 146.098 38.2022 146.098 38.2809C146.098 38.3634 146.072 38.4309 146.019 38.4834C145.967 38.5321 145.897 38.5565 145.811 38.5565H143.269Z" fill="black"/>
<path d="M147.375 38.5565C147.293 38.5565 147.224 38.5284 147.167 38.4721C147.111 38.4159 147.083 38.3465 147.083 38.2641V34.457C147.083 34.3708 147.111 34.3014 147.167 34.2489C147.224 34.1927 147.293 34.1646 147.375 34.1646H148.388C148.669 34.1646 148.918 34.2246 149.135 34.3445C149.353 34.4607 149.522 34.6219 149.642 34.8281C149.765 35.0343 149.827 35.2743 149.827 35.5479C149.827 35.8179 149.76 36.0559 149.625 36.2621C149.49 36.4646 149.306 36.6183 149.074 36.7232L149.934 38.1066C150.001 38.2153 150.011 38.3184 149.962 38.4159C149.913 38.5096 149.829 38.5565 149.709 38.5565C149.6 38.5565 149.516 38.5096 149.456 38.4159L148.489 36.8638C148.455 36.8638 148.421 36.8638 148.388 36.8638H147.668V38.2641C147.668 38.3465 147.64 38.4159 147.583 38.4721C147.531 38.5284 147.462 38.5565 147.375 38.5565ZM147.668 36.324H148.388C148.643 36.324 148.852 36.2527 149.017 36.1103C149.182 35.9641 149.265 35.7766 149.265 35.5479C149.265 35.3005 149.182 35.0981 149.017 34.9406C148.852 34.7832 148.643 34.7044 148.388 34.7044H147.668V36.324Z" fill="black"/>
<path d="M152.121 38.5565C152.042 38.5565 151.974 38.5284 151.918 38.4721C151.862 38.4159 151.834 38.3465 151.834 38.2641V36.9538L150.332 34.6201C150.284 34.5413 150.265 34.4682 150.276 34.4008C150.287 34.3295 150.319 34.2733 150.372 34.2321C150.428 34.1871 150.492 34.1646 150.563 34.1646C150.627 34.1646 150.677 34.1796 150.715 34.2096C150.752 34.2358 150.788 34.2752 150.822 34.3277L152.137 36.4139L153.476 34.3052C153.536 34.2114 153.622 34.1646 153.735 34.1646C153.802 34.1646 153.858 34.1889 153.903 34.2377C153.948 34.2827 153.974 34.3408 153.982 34.412C153.989 34.4795 153.971 34.5488 153.926 34.6201L152.413 36.9538V38.2641C152.413 38.3465 152.385 38.4159 152.329 38.4721C152.272 38.5284 152.203 38.5565 152.121 38.5565Z" fill="black"/>
<path d="M0.595281 29.7197C0.422293 29.7197 0.279833 29.6637 0.1679 29.5518C0.0559666 29.4398 0 29.2974 0 29.1244V18.3941C0 18.2211 0.0559666 18.0786 0.1679 17.9667C0.279833 17.8548 0.422293 17.7988 0.595281 17.7988H3.34273C4.21784 17.7988 5.01664 17.9463 5.73911 18.2414C6.47177 18.5264 7.10266 18.9385 7.6318 19.4778C8.16094 20.0069 8.56797 20.6327 8.85289 21.3552C9.14798 22.0777 9.29553 22.8765 9.29553 23.7516C9.29553 24.6267 9.14798 25.4306 8.85289 26.1632C8.56797 26.8857 8.16094 27.5166 7.6318 28.0559C7.10266 28.5851 6.47177 28.9972 5.73911 29.2923C5.01664 29.5772 4.21784 29.7197 3.34273 29.7197H0.595281ZM1.19056 28.6512H3.34273C4.2789 28.6512 5.10313 28.4426 5.81543 28.0254C6.53791 27.598 7.10266 27.018 7.50969 26.2853C7.91672 25.5425 8.12024 24.6979 8.12024 23.7516C8.12024 22.8052 7.91672 21.9657 7.50969 21.2331C7.10266 20.4903 6.53791 19.9103 5.81543 19.493C5.10313 19.0758 4.2789 18.8672 3.34273 18.8672H1.19056V28.6512Z" fill="black"/>
<path d="M18.1789 29.8723C17.2937 29.8723 16.4796 29.7197 15.7368 29.4144C14.9939 29.1091 14.3478 28.6817 13.7983 28.1322C13.259 27.5828 12.8367 26.9366 12.5314 26.1938C12.2363 25.4509 12.0888 24.6369 12.0888 23.7516C12.0888 22.8765 12.2363 22.0675 12.5314 21.3247C12.8367 20.5818 13.259 19.9357 13.7983 19.3862C14.3478 18.8367 14.9939 18.4093 15.7368 18.1041C16.4796 17.7988 17.2937 17.6462 18.1789 17.6462C19.0541 17.6462 19.863 17.7988 20.6059 18.1041C21.3487 18.4093 21.9948 18.8367 22.5443 19.3862C23.0938 19.9357 23.5161 20.5818 23.8112 21.3247C24.1165 22.0675 24.2691 22.8765 24.2691 23.7516C24.2691 24.6369 24.1165 25.4509 23.8112 26.1938C23.5161 26.9366 23.0938 27.5828 22.5443 28.1322C21.9948 28.6817 21.3487 29.1091 20.6059 29.4144C19.863 29.7197 19.0541 29.8723 18.1789 29.8723ZM18.1789 28.7428C18.8811 28.7428 19.5323 28.6207 20.1327 28.3765C20.7331 28.1221 21.252 27.771 21.6896 27.3233C22.1373 26.8654 22.4833 26.3362 22.7275 25.7359C22.9717 25.1253 23.0938 24.4639 23.0938 23.7516C23.0938 23.0495 22.9717 22.3982 22.7275 21.7978C22.4833 21.1873 22.1373 20.6582 21.6896 20.2104C21.252 19.7525 20.7331 19.4015 20.1327 19.1572C19.5323 18.9029 18.8811 18.7757 18.1789 18.7757C17.4666 18.7757 16.8103 18.9029 16.2099 19.1572C15.6096 19.4015 15.0855 19.7525 14.6378 20.2104C14.2002 20.6582 13.8593 21.1873 13.6151 21.7978C13.3709 22.3982 13.2488 23.0495 13.2488 23.7516C13.2488 24.4639 13.3709 25.1253 13.6151 25.7359C13.8593 26.3362 14.2002 26.8654 14.6378 27.3233C15.0855 27.771 15.6096 28.1221 16.2099 28.3765C16.8103 28.6207 17.4666 28.7428 18.1789 28.7428Z" fill="black"/>
<path d="M33.0055 29.8723C32.1813 29.8723 31.4079 29.7146 30.6854 29.3991C29.9731 29.0837 29.3422 28.6461 28.7928 28.0865C28.2534 27.5166 27.8311 26.8654 27.5259 26.1327C27.2206 25.3899 27.068 24.5962 27.068 23.7516C27.068 22.9172 27.2155 22.1336 27.5106 21.401C27.8159 20.6582 28.2382 20.0069 28.7775 19.4473C29.327 18.8876 29.9579 18.45 30.6702 18.1346C31.3927 17.809 32.1711 17.6462 33.0055 17.6462C33.7382 17.6462 34.4047 17.753 35.005 17.9667C35.6054 18.1804 36.1854 18.5213 36.7451 18.9893C36.8367 19.0606 36.8875 19.1471 36.8977 19.2488C36.9181 19.3404 36.9079 19.432 36.8672 19.5236C36.8265 19.605 36.7654 19.666 36.684 19.7067C36.6637 19.7881 36.6128 19.8492 36.5314 19.8899C36.45 19.9306 36.3533 19.9459 36.2414 19.9357C36.1396 19.9255 36.0379 19.8797 35.9361 19.7983C35.5393 19.4523 35.1068 19.1979 34.6387 19.0351C34.1706 18.8622 33.6262 18.7757 33.0055 18.7757C32.3441 18.7757 31.7234 18.9079 31.1433 19.1725C30.5735 19.4371 30.0698 19.7983 29.6323 20.2562C29.1947 20.7141 28.8487 21.2433 28.5943 21.8436C28.3501 22.444 28.228 23.08 28.228 23.7516C28.228 24.4435 28.3501 25.0897 28.5943 25.6901C28.8487 26.2904 29.1947 26.8196 29.6323 27.2775C30.0698 27.7354 30.5735 28.0966 31.1433 28.3612C31.7234 28.6156 32.3441 28.7428 33.0055 28.7428C33.5652 28.7428 34.0943 28.6512 34.5929 28.468C35.0915 28.2849 35.5647 28.0203 36.0124 27.6743C36.1345 27.5726 36.2617 27.5319 36.394 27.5522C36.5365 27.5726 36.6586 27.6336 36.7604 27.7354C36.8621 27.8371 36.913 27.9694 36.913 28.1322C36.913 28.2136 36.8977 28.29 36.8672 28.3612C36.8468 28.4223 36.8061 28.4884 36.7451 28.5596C36.2261 29.0379 35.6461 29.3788 35.005 29.5823C34.364 29.7756 33.6975 29.8723 33.0055 29.8723Z" fill="black"/>
<path d="M44.1095 29.7197C43.9467 29.7197 43.8043 29.6637 43.6822 29.5518C43.5702 29.4296 43.5143 29.2872 43.5143 29.1244V17.7988H44.7048V29.1244C44.7048 29.2872 44.6488 29.4296 44.5369 29.5518C44.425 29.6637 44.2825 29.7197 44.1095 29.7197ZM39.8968 18.8825C39.734 18.8825 39.6017 18.8316 39.4999 18.7299C39.3982 18.6281 39.3473 18.5009 39.3473 18.3483C39.3473 18.1855 39.3982 18.0532 39.4999 17.9514C39.6017 17.8497 39.734 17.7988 39.8968 17.7988H48.3376C48.5004 17.7988 48.6326 17.8497 48.7344 17.9514C48.8362 18.0532 48.887 18.1855 48.887 18.3483C48.887 18.5009 48.8362 18.6281 48.7344 18.7299C48.6326 18.8316 48.5004 18.8825 48.3376 18.8825H39.8968Z" fill="black"/>
<path d="M56.6176 29.8723C55.7323 29.8723 54.9182 29.7197 54.1754 29.4144C53.4326 29.1091 52.7864 28.6817 52.2369 28.1322C51.6976 27.5828 51.2753 26.9366 50.97 26.1938C50.6749 25.4509 50.5274 24.6369 50.5274 23.7516C50.5274 22.8765 50.6749 22.0675 50.97 21.3247C51.2753 20.5818 51.6976 19.9357 52.2369 19.3862C52.7864 18.8367 53.4326 18.4093 54.1754 18.1041C54.9182 17.7988 55.7323 17.6462 56.6176 17.6462C57.4927 17.6462 58.3017 17.7988 59.0445 18.1041C59.7873 18.4093 60.4335 18.8367 60.983 19.3862C61.5325 19.9357 61.9548 20.5818 62.2498 21.3247C62.5551 22.0675 62.7078 22.8765 62.7078 23.7516C62.7078 24.6369 62.5551 25.4509 62.2498 26.1938C61.9548 26.9366 61.5325 27.5828 60.983 28.1322C60.4335 28.6817 59.7873 29.1091 59.0445 29.4144C58.3017 29.7197 57.4927 29.8723 56.6176 29.8723ZM56.6176 28.7428C57.3197 28.7428 57.971 28.6207 58.5713 28.3765C59.1717 28.1221 59.6907 27.771 60.1282 27.3233C60.5759 26.8654 60.9219 26.3362 61.1661 25.7359C61.4104 25.1253 61.5325 24.4639 61.5325 23.7516C61.5325 23.0495 61.4104 22.3982 61.1661 21.7978C60.9219 21.1873 60.5759 20.6582 60.1282 20.2104C59.6907 19.7525 59.1717 19.4015 58.5713 19.1572C57.971 18.9029 57.3197 18.7757 56.6176 18.7757C55.9053 18.7757 55.2489 18.9029 54.6486 19.1572C54.0482 19.4015 53.5242 19.7525 53.0764 20.2104C52.6389 20.6582 52.298 21.1873 52.0538 21.7978C51.8095 22.3982 51.6874 23.0495 51.6874 23.7516C51.6874 24.4639 51.8095 25.1253 52.0538 25.7359C52.298 26.3362 52.6389 26.8654 53.0764 27.3233C53.5242 27.771 54.0482 28.1221 54.6486 28.3765C55.2489 28.6207 55.9053 28.7428 56.6176 28.7428Z" fill="black"/>
<path d="M66.98 29.7197C66.807 29.7197 66.6646 29.6637 66.5526 29.5518C66.4407 29.4398 66.3847 29.2974 66.3847 29.1244V18.3941C66.3847 18.2211 66.4407 18.0786 66.5526 17.9667C66.6646 17.8548 66.807 17.7988 66.98 17.7988H69.8343C70.5771 17.7988 71.2385 17.9565 71.8186 18.272C72.3986 18.5772 72.8514 19.0097 73.177 19.5694C73.5128 20.1189 73.6807 20.7548 73.6807 21.4773C73.6807 22.1693 73.5128 22.7849 73.177 23.3242C72.8514 23.8635 72.3986 24.2858 71.8186 24.5911C71.2385 24.8964 70.5771 25.049 69.8343 25.049H67.5753V29.1244C67.5753 29.2974 67.5193 29.4398 67.4074 29.5518C67.2955 29.6637 67.153 29.7197 66.98 29.7197ZM73.3602 29.7197C73.2279 29.7197 73.1211 29.6942 73.0396 29.6433C72.9684 29.5925 72.9023 29.5161 72.8412 29.4144L69.9106 24.7437L71.1012 24.4385L73.8334 28.8038C73.986 29.0481 74.0114 29.2617 73.9097 29.4449C73.8181 29.6281 73.6349 29.7197 73.3602 29.7197ZM67.5753 23.9042H69.8343C70.3533 23.9042 70.8112 23.8025 71.208 23.599C71.6151 23.3853 71.9356 23.0953 72.1696 22.7289C72.4037 22.3626 72.5207 21.9454 72.5207 21.4773C72.5207 20.9787 72.4037 20.5411 72.1696 20.1646C71.9356 19.778 71.6151 19.4778 71.208 19.2641C70.8112 19.0504 70.3533 18.9436 69.8343 18.9436H67.5753V23.9042Z" fill="black"/>
<path d="M86.6873 29.7197C86.4329 29.7197 86.2498 29.5925 86.1378 29.3381L81.6046 18.7299C81.4926 18.4449 81.4825 18.2211 81.574 18.0583C81.6758 17.8853 81.8488 17.7988 82.093 17.7988C82.3474 17.7988 82.5306 17.926 82.6425 18.1804L86.8552 28.2544H86.5194L90.7169 18.2109C90.778 18.0583 90.8543 17.9514 90.9459 17.8904C91.0375 17.8293 91.1596 17.7988 91.3122 17.7988C91.5463 17.7988 91.704 17.8904 91.7854 18.0735C91.8668 18.2465 91.8617 18.4449 91.7701 18.6688L87.2216 29.3381C87.1605 29.4805 87.0842 29.5823 86.9926 29.6433C86.901 29.6942 86.7993 29.7197 86.6873 29.7197Z" fill="black"/>
<path d="M93.1516 29.7197C92.9176 29.7197 92.7497 29.623 92.6479 29.4296C92.5461 29.2363 92.536 29.0481 92.6174 28.8649L97.1049 18.2109C97.2168 17.9362 97.4101 17.7988 97.6849 17.7988C97.9495 17.7988 98.1377 17.9362 98.2496 18.2109L102.752 28.8802C102.844 29.0735 102.829 29.2617 102.707 29.4449C102.595 29.6281 102.432 29.7197 102.218 29.7197C102.096 29.7197 101.984 29.6891 101.882 29.6281C101.791 29.567 101.714 29.4754 101.653 29.3533L97.4559 19.1725H97.9291L93.7011 29.3533C93.6502 29.4754 93.5739 29.567 93.4721 29.6281C93.3806 29.6891 93.2737 29.7197 93.1516 29.7197ZM94.159 26.8806L94.6169 25.858H100.814L101.272 26.8806H94.159Z" fill="black"/>
<path d="M109.424 29.8723C108.773 29.8723 108.168 29.7807 107.608 29.5975C107.059 29.4042 106.58 29.1346 106.173 28.7886C105.766 28.4426 105.456 28.0407 105.242 27.5828C105.161 27.4199 105.156 27.2724 105.227 27.1401C105.308 26.9976 105.441 26.901 105.624 26.8501C105.766 26.8094 105.904 26.8247 106.036 26.8959C106.178 26.9671 106.285 27.074 106.357 27.2164C106.509 27.5115 106.733 27.7761 107.028 28.0101C107.323 28.2442 107.674 28.4273 108.081 28.5596C108.488 28.6817 108.936 28.7428 109.424 28.7428C109.964 28.7428 110.442 28.6563 110.859 28.4833C111.276 28.3001 111.602 28.0407 111.836 27.7049C112.08 27.3589 112.202 26.9417 112.202 26.4532C112.202 25.8325 111.974 25.2983 111.516 24.8506C111.058 24.4028 110.34 24.1179 109.363 23.9958C108.173 23.8533 107.242 23.487 106.57 22.8968C105.899 22.2965 105.563 21.5638 105.563 20.6989C105.563 20.0781 105.726 19.5388 106.051 19.0809C106.387 18.623 106.845 18.272 107.425 18.0277C108.005 17.7733 108.671 17.6462 109.424 17.6462C109.984 17.6462 110.493 17.7377 110.951 17.9209C111.409 18.0939 111.806 18.3279 112.141 18.623C112.487 18.9079 112.767 19.2234 112.981 19.5694C113.083 19.7322 113.113 19.8899 113.072 20.0425C113.042 20.1952 112.955 20.3122 112.813 20.3936C112.66 20.4648 112.503 20.475 112.34 20.4241C112.187 20.3732 112.07 20.2766 111.989 20.1341C111.836 19.9001 111.643 19.6813 111.409 19.4778C111.185 19.2641 110.91 19.0962 110.585 18.9741C110.259 18.852 109.867 18.7858 109.409 18.7757C108.605 18.7757 107.959 18.9486 107.471 19.2946C106.982 19.6304 106.738 20.1239 106.738 20.7752C106.738 21.1212 106.83 21.4417 107.013 21.7368C107.196 22.0217 107.496 22.271 107.913 22.4847C108.341 22.6882 108.911 22.8409 109.623 22.9426C110.895 23.1258 111.836 23.5175 112.447 24.1179C113.067 24.7081 113.378 25.4815 113.378 26.438C113.378 26.9875 113.276 27.4759 113.072 27.9033C112.879 28.3307 112.599 28.6919 112.233 28.987C111.877 29.2719 111.455 29.4907 110.966 29.6433C110.488 29.796 109.974 29.8723 109.424 29.8723Z" fill="black"/>
<path d="M117.684 29.7197C117.511 29.7197 117.368 29.6637 117.256 29.5518C117.144 29.4398 117.088 29.2974 117.088 29.1244V18.3941C117.088 18.2211 117.144 18.0786 117.256 17.9667C117.368 17.8548 117.511 17.7988 117.684 17.7988C117.857 17.7988 117.999 17.8548 118.111 17.9667C118.223 18.0786 118.279 18.2211 118.279 18.3941V29.1244C118.279 29.2974 118.223 29.4398 118.111 29.5518C117.999 29.6637 117.857 29.7197 117.684 29.7197Z" fill="black"/>
<path d="M123.153 29.7197C122.99 29.7197 122.848 29.6637 122.726 29.5518C122.614 29.4398 122.558 29.2974 122.558 29.1244V18.3941C122.558 18.2313 122.614 18.0939 122.726 17.9819C122.848 17.8598 122.99 17.7988 123.153 17.7988C123.316 17.7988 123.453 17.8598 123.565 17.9819C123.687 18.0939 123.748 18.2313 123.748 18.3941V28.5902H129.716C129.879 28.5902 130.017 28.6461 130.128 28.758C130.251 28.8598 130.312 28.9921 130.312 29.1549C130.312 29.3177 130.251 29.4551 130.128 29.567C130.017 29.6688 129.879 29.7197 129.716 29.7197H123.153Z" fill="black"/>
<path d="M134.033 29.7197C133.86 29.7197 133.718 29.6637 133.606 29.5518C133.494 29.4398 133.438 29.2974 133.438 29.1244V18.3941C133.438 18.2211 133.494 18.0786 133.606 17.9667C133.718 17.8548 133.86 17.7988 134.033 17.7988H141.192C141.355 17.7988 141.492 17.8548 141.604 17.9667C141.726 18.0684 141.787 18.2058 141.787 18.3788C141.787 18.5314 141.726 18.6637 141.604 18.7757C141.492 18.8876 141.355 18.9436 141.192 18.9436H134.628V23.1563H139.406C139.579 23.1563 139.721 23.2123 139.833 23.3242C139.945 23.4361 140.001 23.5735 140.001 23.7363C140.001 23.8991 139.945 24.0365 139.833 24.1484C139.721 24.2604 139.579 24.3163 139.406 24.3163H134.628V28.5749H141.192C141.355 28.5749 141.492 28.6309 141.604 28.7428C141.726 28.8547 141.787 28.987 141.787 29.1396C141.787 29.3126 141.726 29.4551 141.604 29.567C141.492 29.6688 141.355 29.7197 141.192 29.7197H134.033Z" fill="black"/>
<path d="M149.18 29.7197C148.926 29.7197 148.743 29.5925 148.631 29.3381L144.098 18.7299C143.986 18.4449 143.976 18.2211 144.067 18.0583C144.169 17.8853 144.342 17.7988 144.586 17.7988C144.84 17.7988 145.024 17.926 145.136 18.1804L149.348 28.2544H149.013L153.21 18.2109C153.271 18.0583 153.347 17.9514 153.439 17.8904C153.531 17.8293 153.653 17.7988 153.805 17.7988C154.039 17.7988 154.197 17.8904 154.278 18.0735C154.36 18.2465 154.355 18.4449 154.263 18.6688L149.715 29.3381C149.654 29.4805 149.577 29.5823 149.486 29.6433C149.394 29.6942 149.292 29.7197 149.18 29.7197Z" fill="black"/>
</svg>
