<svg width="30" height="30" fill="none" xmlns="http://www.w3.org/2000/svg"><path fill="#6F97F3" d="M0 0h30v30H0z"/><path fill-rule="evenodd" clip-rule="evenodd" d="M14.433 21.579h1.178s.355-.04.537-.235c.167-.18.162-.517.162-.517s-.023-1.58.71-1.813c.723-.229 1.65 1.527 2.634 2.203.744.51 1.31.398 1.31.398l2.63-.036s1.376-.085.723-1.167c-.053-.088-.38-.8-1.955-2.263-1.65-1.53-1.429-1.283.558-3.93 1.21-1.614 1.694-2.598 1.543-3.02-.144-.401-1.034-.295-1.034-.295l-2.962.018s-.22-.03-.382.068c-.16.095-.262.318-.262.318s-.468 1.248-1.094 2.309c-1.318 2.24-1.846 2.357-2.061 2.218-.502-.324-.377-1.302-.377-1.996 0-2.17.33-3.075-.64-3.31-.322-.077-.56-.129-1.383-.137-1.056-.01-1.95.003-2.457.251-.337.165-.597.533-.439.554.196.026.64.12.874.44.304.413.293 1.34.293 1.34s.175 2.554-.407 2.872c-.4.218-.947-.227-2.123-2.258C9.407 12.55 8.952 11.4 8.952 11.4s-.087-.215-.244-.33c-.19-.14-.455-.184-.455-.184l-2.814.018s-.423.012-.578.196c-.138.163-.01.501-.01.501s2.202 5.155 4.697 7.753c2.288 2.381 4.885 2.225 4.885 2.225z" fill="#fff"/></svg>