<svg width="30" height="30" fill="none" xmlns="http://www.w3.org/2000/svg"><path fill="#21C046" d="M0 0h30v30H0z"/><path d="M6.908 23.026l1.138-4.156a7.998 7.998 0 0 1-1.07-4.01c.001-4.42 3.602-8.018 8.025-8.018 2.146 0 4.161.836 5.677 2.352a7.97 7.97 0 0 1 2.348 5.674c-.002 4.422-3.602 8.02-8.025 8.02a8.034 8.034 0 0 1-3.838-.977l-4.255 1.115zm4.452-2.567c1.13.671 2.21 1.073 3.638 1.074 3.676 0 6.671-2.99 6.673-6.666a6.666 6.666 0 0 0-6.667-6.67c-3.68 0-6.672 2.99-6.674 6.664 0 1.5.44 2.624 1.179 3.8l-.675 2.46 2.526-.662zm7.684-3.684c-.05-.084-.184-.134-.385-.234-.2-.1-1.186-.586-1.37-.652-.184-.067-.318-.101-.452.1-.134.2-.518.652-.635.785-.117.134-.234.15-.435.05-.2-.1-.846-.311-1.612-.994a6.032 6.032 0 0 1-1.116-1.389c-.117-.2-.012-.309.088-.408.09-.09.2-.234.3-.352.103-.116.136-.2.203-.333.067-.134.034-.251-.017-.352-.05-.1-.451-1.086-.618-1.487-.163-.39-.328-.338-.451-.344l-.385-.007c-.133 0-.35.05-.534.25-.184.202-.702.686-.702 1.673 0 .986.719 1.939.819 2.072.1.134 1.413 2.158 3.425 3.026.478.207.852.33 1.143.422.48.153.918.131 1.263.08.386-.057 1.186-.485 1.354-.953.167-.469.167-.87.117-.954z" fill="#fff"/></svg>