<svg width="30" height="30" fill="none" xmlns="http://www.w3.org/2000/svg"><path d="M30 0H0v30h30V0z" fill="#7D3DAF"/><path d="M24.488 9.67l-.006-.023c-.48-1.938-2.64-4.017-4.624-4.45l-.022-.004a25.695 25.695 0 0 0-9.672 0l-.023.005c-1.983.432-4.144 2.511-4.624 4.449l-.005.023a18.93 18.93 0 0 0 0 8.155l.005.024c.46 1.854 2.46 3.838 4.37 4.383v2.163c0 .782.953 1.167 1.496.602l2.19-2.277a25.777 25.777 0 0 0 6.262-.417l.023-.006c1.984-.432 4.145-2.51 4.624-4.448l.006-.024c.592-2.705.592-5.45 0-8.155zm-1.734 7.763c-.32 1.264-1.96 2.835-3.264 3.125a23.954 23.954 0 0 1-5.144.416.122.122 0 0 0-.09.037l-1.6 1.642-1.702 1.746a.2.2 0 0 1-.343-.137v-3.583a.122.122 0 0 0-.1-.12h-.002c-1.303-.291-2.943-1.862-3.264-3.126a17.179 17.179 0 0 1 0-7.37c.321-1.264 1.96-2.836 3.264-3.126a23.93 23.93 0 0 1 8.981 0c1.304.29 2.944 1.862 3.264 3.125a17.16 17.16 0 0 1 0 7.37z" fill="#fff"/><path d="M17.835 19.086c-.2-.06-.392-.101-.569-.175-1.837-.762-3.529-1.746-4.868-3.254-.762-.857-1.358-1.825-1.863-2.85-.239-.485-.44-.99-.645-1.492-.188-.457.088-.93.379-1.274a2.995 2.995 0 0 1 1.002-.754c.297-.142.589-.06.805.191.468.543.898 1.114 1.246 1.744.214.387.155.86-.232 1.124-.095.064-.18.139-.268.211a.878.878 0 0 0-.203.214.584.584 0 0 0-.039.513c.479 1.314 1.285 2.336 2.608 2.887.212.088.424.19.668.162.409-.048.54-.496.827-.73.28-.229.637-.232.939-.04.301.19.593.395.884.602.285.203.569.402.832.633.253.223.34.515.197.817-.26.554-.64 1.014-1.187 1.308-.154.083-.339.11-.513.163.174-.053-.2-.06 0 0zm-2.83-10.431c2.403.067 4.378 1.662 4.8 4.039.073.404.098.818.13 1.23.014.172-.084.337-.27.339-.193.002-.28-.16-.292-.332-.025-.342-.042-.686-.09-1.025-.248-1.79-1.676-3.272-3.458-3.59-.269-.048-.543-.06-.815-.089-.171-.018-.396-.028-.434-.242-.032-.178.119-.321.29-.33.045-.003.092 0 .139 0-.047 0 2.403.067 0 0z" fill="#fff"/><path d="M18.657 13.39c-.003.03-.006.1-.023.167-.064.241-.43.272-.514.028a.727.727 0 0 1-.029-.232 2.91 2.91 0 0 0-.368-1.46 2.718 2.718 0 0 0-1.14-1.07 3.278 3.278 0 0 0-.909-.28c-.137-.022-.275-.036-.413-.055-.167-.023-.256-.13-.248-.294a.258.258 0 0 1 .288-.255c.552.031 1.085.15 1.575.41.997.528 1.567 1.362 1.733 2.475.008.05.02.1.024.151.009.125.015.25.024.415-.01-.165-.003.03 0 0z" fill="#fff"/><path d="M17.162 13.332c-.2.003-.308-.108-.329-.292-.014-.129-.026-.26-.056-.384a1.08 1.08 0 0 0-.4-.626 1.04 1.04 0 0 0-.324-.157c-.147-.042-.3-.03-.448-.066-.16-.04-.248-.17-.223-.32a.289.289 0 0 1 .305-.231c.932.067 1.598.549 1.693 1.646.007.077.015.16-.003.233-.03.127-.123.19-.215.197.092-.007-.2.003 0 0z" fill="#fff"/></svg>