<svg width="30" height="30" viewBox="0 0 30 30" fill="none" xmlns="http://www.w3.org/2000/svg">
<path d="M17.8711 15C17.8711 16.5857 16.5857 17.8711 15 17.8711C13.4143 17.8711 12.1289 16.5857 12.1289 15C12.1289 13.4143 13.4143 12.1289 15 12.1289C16.5857 12.1289 17.8711 13.4143 17.8711 15Z" fill="#6F97F3"/>
<path d="M21.7144 9.92021C21.5764 9.54622 21.3562 9.2077 21.0701 8.92984C20.7923 8.64374 20.454 8.42355 20.0797 8.28554C19.7762 8.16766 19.3203 8.02736 18.4805 7.98914C17.5721 7.94771 17.2997 7.93878 14.9999 7.93878C12.6999 7.93878 12.4275 7.94748 11.5193 7.98891C10.6796 8.02736 10.2234 8.16766 9.92014 8.28554C9.54591 8.42355 9.2074 8.64374 8.92976 8.92984C8.64366 9.2077 8.42348 9.54599 8.28523 9.92021C8.16736 10.2237 8.02705 10.6799 7.98883 11.5196C7.9474 12.4278 7.93848 12.7002 7.93848 15.0002C7.93848 17.3 7.9474 17.5724 7.98883 18.4809C8.02705 19.3206 8.16736 19.7766 8.28523 20.08C8.42348 20.4543 8.64343 20.7926 8.92953 21.0704C9.2074 21.3565 9.54568 21.5767 9.91991 21.7147C10.2234 21.8328 10.6796 21.9731 11.5193 22.0114C12.4275 22.0528 12.6997 22.0615 14.9997 22.0615C17.3 22.0615 17.5723 22.0528 18.4803 22.0114C19.3201 21.9731 19.7762 21.8328 20.0797 21.7147C20.8309 21.425 21.4247 20.8312 21.7144 20.08C21.8323 19.7766 21.9726 19.3206 22.011 18.4809C22.0525 17.5724 22.0612 17.3 22.0612 15.0002C22.0612 12.7002 22.0525 12.4278 22.011 11.5196C21.9728 10.6799 21.8325 10.2237 21.7144 9.92021ZM14.9999 19.4229C12.5571 19.4229 10.5768 17.4429 10.5768 15C10.5768 12.5572 12.5571 10.5771 14.9999 10.5771C17.4426 10.5771 19.4229 12.5572 19.4229 15C19.4229 17.4429 17.4426 19.4229 14.9999 19.4229ZM19.5977 11.4359C19.0269 11.4359 18.5641 10.9731 18.5641 10.4022C18.5641 9.83141 19.0269 9.36861 19.5977 9.36861C20.1685 9.36861 20.6313 9.83141 20.6313 10.4022C20.6311 10.9731 20.1685 11.4359 19.5977 11.4359Z" fill="#6F97F3"/>
<path fill-rule="evenodd" clip-rule="evenodd" d="M15 0H30V15V30H15H0V15V0H15ZM23.161 20.6419C23.3739 20.094 23.5197 19.468 23.5613 18.5511C23.6034 17.6326 23.6133 17.3392 23.6133 15C23.6133 12.6608 23.6034 12.3674 23.5616 11.4489C23.5197 10.532 23.3741 9.90601 23.161 9.35806C22.9449 8.78334 22.6057 8.26286 22.1677 7.83257C21.7374 7.39426 21.2167 7.05505 20.6419 6.83876C20.094 6.62613 19.468 6.48056 18.5511 6.4389C17.6326 6.39679 17.3392 6.38672 15 6.38672C12.6608 6.38672 12.3674 6.39679 11.4489 6.43867C10.532 6.48056 9.90601 6.62613 9.35806 6.83899C8.78334 7.05528 8.26263 7.39426 7.83257 7.83257C7.39426 8.26263 7.05505 8.78334 6.83876 9.35806C6.6259 9.90601 6.48033 10.532 6.43867 11.4489C6.39656 12.3674 6.38672 12.6608 6.38672 15C6.38672 17.3392 6.39656 17.6326 6.4389 18.5513C6.48056 19.468 6.62636 20.0942 6.83922 20.6419C7.05551 21.2167 7.39449 21.7374 7.83257 22.1674C8.26286 22.6057 8.78334 22.9447 9.35829 23.161C9.90601 23.3739 10.5322 23.5194 11.4489 23.5613C12.3676 23.6032 12.6608 23.6133 15.0002 23.6133C17.3394 23.6133 17.6328 23.6032 18.5513 23.5613C19.468 23.5194 20.0942 23.3739 20.6419 23.161C21.7989 22.7135 22.7135 21.7989 23.161 20.6419Z" fill="#6F97F3"/>
</svg>
