<svg width="30" height="30" viewBox="0 0 30 30" fill="none" xmlns="http://www.w3.org/2000/svg">
<path d="M30 0H0V30H30V0Z" fill="#61A8DE"/>
<path d="M23.6221 6.62231L3.56073 14.44C2.91094 14.6933 2.9503 15.6257 3.61918 15.8232L8.71699 17.3286L10.6195 23.3654C10.8182 23.996 11.6173 24.1871 12.0799 23.7148L14.7156 21.0236L19.8871 24.8196C20.5199 25.2842 21.4213 24.939 21.582 24.1706L25.0071 7.79517C25.1748 6.99306 24.3856 6.32477 23.6221 6.62231ZM21.1069 10.2564L11.7885 18.4967C11.6957 18.5788 11.6365 18.6925 11.6227 18.8158L11.264 22.005C11.2522 22.109 11.1067 22.1228 11.0756 22.0228L9.59955 17.2665C9.53195 17.0488 9.62009 16.8129 9.81382 16.6927L20.8179 9.86791C21.0709 9.71084 21.33 10.0592 21.1069 10.2564Z" fill="white"/>
</svg>
