<svg width="30" height="30" viewBox="0 0 30 30" fill="none" xmlns="http://www.w3.org/2000/svg">
<path d="M30 0H0V30H30V0Z" fill="#7D3DAF"/>
<path d="M24.4879 9.67027L24.482 9.64657C24.0027 7.70924 21.8422 5.63038 19.8582 5.19789L19.8358 5.19328C16.6267 4.58108 13.3728 4.58108 10.1643 5.19328L10.1413 5.19789C8.15785 5.63038 5.99737 7.70924 5.51748 9.64657L5.51221 9.67027C4.91976 12.3758 4.91976 15.1195 5.51221 17.8251L5.51748 17.8488C5.97689 19.7034 7.9765 21.6868 9.8865 22.2322V24.3948C9.8865 25.1775 10.8404 25.5619 11.3828 24.9971L13.5739 22.7195C14.0491 22.7461 14.5246 22.761 15 22.761C16.6155 22.761 18.2316 22.6082 19.8358 22.3021L19.8582 22.2975C21.8422 21.865 24.0027 19.7862 24.482 17.8488L24.4879 17.8251C25.0803 15.1195 25.0803 12.3758 24.4879 9.67027ZM22.754 17.4327C22.434 18.6966 20.7936 20.268 19.4902 20.5583C17.7839 20.8827 16.064 21.0214 14.3459 20.9738C14.3117 20.9729 14.2789 20.9862 14.2551 21.0106C14.0112 21.2609 12.6552 22.6529 12.6552 22.6529L10.9536 24.3994C10.8292 24.529 10.6106 24.4408 10.6106 24.2618V20.6793C10.6106 20.6201 10.5684 20.5698 10.5102 20.5584C10.5099 20.5583 10.5096 20.5583 10.5092 20.5582C9.20584 20.2679 7.56606 18.6966 7.24547 17.4327C6.71226 14.9872 6.71226 12.5081 7.24547 10.0625C7.56606 8.79863 9.20584 7.22731 10.5092 6.93701C13.4893 6.37023 16.5108 6.37023 19.4902 6.93701C20.7943 7.22731 22.434 8.79863 22.754 10.0625C23.2878 12.5081 23.2878 14.9872 22.754 17.4327Z" fill="white"/>
<path d="M17.8349 19.0864C17.6345 19.0256 17.4435 18.9847 17.2662 18.9111C15.4285 18.1487 13.7373 17.1651 12.3976 15.6573C11.6358 14.7999 11.0395 13.8318 10.5354 12.8074C10.2964 12.3216 10.095 11.8168 9.88966 11.3152C9.70244 10.8579 9.9782 10.3853 10.2686 10.0407C10.541 9.71731 10.8916 9.4698 11.2713 9.28739C11.5677 9.145 11.86 9.22709 12.0765 9.47829C12.5444 10.0214 12.9742 10.5922 13.3222 11.2218C13.5362 11.609 13.4775 12.0823 13.0896 12.3458C12.9954 12.4098 12.9095 12.485 12.8217 12.5573C12.7446 12.6207 12.6722 12.6848 12.6194 12.7706C12.5229 12.9277 12.5183 13.1129 12.5804 13.2837C13.0587 14.5982 13.8649 15.6203 15.1879 16.1708C15.3996 16.2589 15.6122 16.3614 15.8561 16.333C16.2646 16.2853 16.3969 15.8372 16.6831 15.6032C16.9628 15.3744 17.3204 15.3714 17.6217 15.5621C17.9232 15.7528 18.2154 15.9576 18.5058 16.1646C18.7909 16.3678 19.0748 16.5665 19.3377 16.7981C19.5906 17.0208 19.6777 17.3129 19.5353 17.6151C19.2746 18.1686 18.8953 18.6291 18.3481 18.923C18.1936 19.0059 18.0091 19.0327 17.8349 19.0864C18.0091 19.0327 17.6345 19.0255 17.8349 19.0864Z" fill="white"/>
<path d="M15.0046 8.65456C17.4083 8.72191 19.3826 10.3171 19.8056 12.6935C19.8777 13.0984 19.9034 13.5124 19.9355 13.9234C19.949 14.0963 19.8511 14.2605 19.6645 14.2627C19.4718 14.265 19.3851 14.1038 19.3726 13.931C19.3479 13.589 19.3307 13.2454 19.2836 12.9062C19.0347 11.1156 17.6069 9.63422 15.8246 9.31634C15.5564 9.26848 15.2819 9.25591 15.0103 9.2274C14.8385 9.20937 14.6136 9.19896 14.5755 8.98548C14.5436 8.8065 14.6947 8.66398 14.8651 8.65483C14.9114 8.65226 14.958 8.65437 15.0046 8.65456C14.958 8.65437 17.4083 8.72191 15.0046 8.65456Z" fill="white"/>
<path d="M18.6575 13.39C18.6536 13.42 18.6515 13.4906 18.6339 13.5571C18.5701 13.7984 18.2042 13.8286 18.12 13.585C18.095 13.5127 18.0913 13.4305 18.0911 13.3527C18.0903 12.8436 17.9796 12.335 17.7229 11.8921C17.459 11.4368 17.0558 11.0541 16.5829 10.8225C16.2969 10.6825 15.9877 10.5954 15.6743 10.5436C15.5373 10.5209 15.3988 10.5072 15.2612 10.488C15.0944 10.4648 15.0053 10.3585 15.0132 10.1941C15.0206 10.0401 15.1331 9.92932 15.301 9.9388C15.8527 9.97013 16.3855 10.0893 16.8759 10.349C17.8732 10.8772 18.4429 11.7108 18.6091 12.824C18.6167 12.8744 18.6288 12.9244 18.6326 12.975C18.642 13.1 18.6479 13.2251 18.6575 13.39C18.6479 13.2251 18.6536 13.42 18.6575 13.39Z" fill="white"/>
<path d="M17.1624 13.3317C16.9613 13.3353 16.8537 13.224 16.833 13.0396C16.8185 12.9111 16.8072 12.7808 16.7765 12.6557C16.716 12.4094 16.5851 12.1811 16.3779 12.0302C16.2801 11.9589 16.1692 11.9069 16.0531 11.8734C15.9056 11.8308 15.7524 11.8426 15.6052 11.8065C15.4454 11.7673 15.357 11.6379 15.3821 11.4879C15.4049 11.3515 15.5377 11.245 15.6868 11.2558C16.6188 11.323 17.2848 11.8048 17.3799 12.9019C17.3866 12.9793 17.3945 13.0612 17.3773 13.1352C17.3479 13.262 17.254 13.3255 17.1624 13.3317C17.254 13.3255 16.9613 13.3353 17.1624 13.3317Z" fill="white"/>
</svg>
