<svg width="30" height="30" viewBox="0 0 30 30" fill="none" xmlns="http://www.w3.org/2000/svg">
<rect width="30" height="30" fill="#6F97F3"/>
<path fill-rule="evenodd" clip-rule="evenodd" d="M14.4334 21.5788H15.6108C15.6108 21.5788 15.9664 21.5398 16.1479 21.344C16.3151 21.1644 16.3097 20.8269 16.3097 20.8269C16.3097 20.8269 16.2867 19.2472 17.0199 19.0145C17.7426 18.7854 18.6708 20.5413 19.6545 21.2165C20.3984 21.7275 20.9636 21.6154 20.9636 21.6154L23.5939 21.5788C23.5939 21.5788 24.9699 21.494 24.3175 20.4122C24.264 20.3237 23.9375 19.6119 22.3618 18.1493C20.7125 16.6185 20.9334 16.8661 22.9201 14.2181C24.13 12.6055 24.6138 11.621 24.4627 11.1993C24.3186 10.7977 23.4287 10.9038 23.4287 10.9038L20.4671 10.9223C20.4671 10.9223 20.2476 10.8923 20.0847 10.9897C19.9256 11.0851 19.8232 11.3076 19.8232 11.3076C19.8232 11.3076 19.3545 12.5555 18.7293 13.6168C17.4106 15.8561 16.8833 15.9743 16.6677 15.8353C16.1664 15.5112 16.2915 14.5334 16.2915 13.8387C16.2915 11.6686 16.6207 10.7637 15.6506 10.5295C15.3287 10.4517 15.0918 10.4003 14.2685 10.392C13.2117 10.3811 12.3173 10.3953 11.8109 10.6434C11.474 10.8084 11.2141 11.176 11.3724 11.1972C11.5681 11.2234 12.0114 11.3167 12.2465 11.6367C12.5499 12.0496 12.5393 12.9769 12.5393 12.9769C12.5393 12.9769 12.7136 15.5315 12.132 15.8489C11.7328 16.0666 11.1852 15.6222 10.0095 13.5906C9.40706 12.5499 8.95223 11.3996 8.95223 11.3996C8.95223 11.3996 8.86452 11.1846 8.7081 11.0696C8.51826 10.9303 8.25301 10.8859 8.25301 10.8859L5.43873 10.9044C5.43873 10.9044 5.01626 10.9161 4.86117 11.0998C4.7232 11.2632 4.85021 11.6012 4.85021 11.6012C4.85021 11.6012 7.0535 16.7559 9.54824 19.3536C11.8358 21.7352 14.4334 21.5788 14.4334 21.5788Z" fill="white"/>
</svg>
