<svg width="30" height="30" viewBox="0 0 30 30" fill="none" xmlns="http://www.w3.org/2000/svg">
<rect width="30" height="30" fill="#21C046"/>
<path d="M6.9079 23.0264L8.0463 18.8704C7.34382 17.6539 6.9747 16.2749 6.97538 14.8608C6.9774 10.4398 10.5775 6.84216 15.0008 6.84216C17.1474 6.84284 19.1624 7.67835 20.678 9.19427C22.1929 10.7102 23.027 12.7251 23.0263 14.8682C23.0243 19.2898 19.4242 22.8875 15.0008 22.8875C13.658 22.8868 12.3347 22.5503 11.1626 21.911L6.9079 23.0264V23.0264ZM11.3596 20.4592C12.4906 21.1301 13.5703 21.532 14.9981 21.5327C18.6745 21.5327 21.6693 18.5427 21.6713 14.8668C21.6727 11.1836 18.692 8.19759 15.0035 8.19624C11.3245 8.19624 8.33174 11.1863 8.33039 14.8614C8.32971 16.3619 8.76969 17.4853 9.5086 18.6607L8.83447 21.1207L11.3596 20.4592V20.4592ZM19.0436 16.7745C18.9937 16.6909 18.8601 16.641 18.659 16.5406C18.4586 16.4401 17.4727 15.9552 17.2884 15.8885C17.1049 15.8217 16.9713 15.788 16.837 15.9889C16.7034 16.1892 16.3187 16.641 16.202 16.7745C16.0853 16.9081 15.9678 16.9249 15.7674 16.8244C15.567 16.724 14.9205 16.5129 14.1546 15.8298C13.5588 15.2984 13.1559 14.6423 13.0392 14.4413C12.9224 14.241 13.027 14.1325 13.1269 14.0327C13.2173 13.943 13.3273 13.7987 13.4279 13.6813C13.5298 13.5654 13.5628 13.4817 13.6303 13.3475C13.6971 13.214 13.6641 13.0967 13.6134 12.9962C13.5628 12.8964 13.162 11.9098 12.9953 11.5086C12.832 11.1182 12.6667 11.1708 12.5439 11.1647L12.1592 11.158C12.0256 11.158 11.8083 11.2079 11.6248 11.4088C11.4412 11.6098 10.923 12.0939 10.923 13.0805C10.923 14.0671 11.6417 15.0199 11.7415 15.1534C11.8421 15.2869 13.1553 17.3113 15.1669 18.1792C15.6453 18.3856 16.0191 18.509 16.31 18.6013C16.7904 18.7537 17.2277 18.7322 17.5732 18.6809C17.9585 18.6236 18.7595 18.1961 18.9269 17.7281C19.0942 17.2594 19.0942 16.8582 19.0436 16.7745V16.7745Z" fill="white"/>
</svg>
